<svg xmlns="http://www.w3.org/2000/svg" xmlns:xlink="http://www.w3.org/1999/xlink" version="1.1" width="602.5263pt" height="491.9709pt" viewBox="0 0 200.8421 163.9903">
<defs>
<clipPath id="clip_0">
<path transform="matrix(1,0,0,-1,-337.083,735.9253)" d="M337.083 571.935H537.9251V735.9253H337.083Z"/>
</clipPath>
<clipPath id="clip_1">
<path transform="matrix(.08064,0,0,-.08064,0,163.9903)" d="M0 0H2490.6016V2033.6094H0Z"/>
</clipPath>
<clipPath id="clip_2">
<path transform="matrix(.08064,0,0,-.08064,0,163.9903)" d="M263.938 150.375H2423.938V1950.375H263.938Z"/>
</clipPath>
<clipPath id="clip_3">
<path transform="matrix(.08064,0,0,-.08064,0,163.9903)" d="M263.938 150.375H2423.938V1950.375H263.938Z"/>
</clipPath>
<clipPath id="clip_4">
<path transform="matrix(.08064,0,0,-.08064,0,163.9903)" d="M263.938 150.375H2423.938V1950.375H263.938Z"/>
</clipPath>
<clipPath id="clip_5">
<path transform="matrix(.08064,0,0,-.08064,0,163.9903)" d="M263.938 150.375H2423.938V1950.375H263.938Z"/>
</clipPath>
<clipPath id="clip_6">
<path transform="matrix(.08064,0,0,-.08064,0,163.9903)" d="M263.938 150.375H2423.938V1950.375H263.938Z"/>
</clipPath>
<clipPath id="clip_7">
<path transform="matrix(.08064,0,0,-.08064,0,163.9903)" d="M263.938 150.375H2423.938V1950.375H263.938Z"/>
</clipPath>
<g id="font_8_48">
<path transform="matrix(.001,0,0,.001,0,0)" d="M318 664C267 664 229 639 203 589 177 539 165 464 165 364 165 264 177 189 203 139 229 89 267 64 318 64 369 64 407 89 433 139 458 189 471 264 471 364 471 464 458 539 433 589 407 639 369 664 318 664ZM318 742C399 742 461 709 505 645 548 580 570 486 570 364 570 241 548 147 505 83 461 19 399-13 317-13 235-13 173 19 130 83 87 147 66 241 66 364 66 486 87 580 130 645 173 709 236 742 318 742Z"/>
</g>
<g id="font_8_107">
<path transform="matrix(.001,0,0,.001,0,0)" d="M91 760H181V311L449 547H564L274 291 576 0H459L181 267V0H91V760Z"/>
</g>
<g id="font_8_49">
<path transform="matrix(.001,0,0,.001,0,0)" d="M124 83H285V639L110 604V694L284 729H383V83H544V0H124V83Z"/>
</g>
<g id="font_8_50">
<path transform="matrix(.001,0,0,.001,0,0)" d="M192 83H536V0H73V83C110 121 161 173 226 239 290 304 331 346 348 365 380 400 402 430 414 455 426 479 433 504 433 528 433 566 419 598 392 622 365 646 330 659 286 659 255 659 222 653 188 643 154 632 117 616 78 594V694C118 710 155 722 189 730 223 738 255 742 284 742 359 742 419 723 464 685 509 647 532 597 532 534 532 504 526 475 515 449 504 422 484 390 454 354 446 344 420 317 376 272 332 227 271 164 192 83Z"/>
</g>
<g id="font_8_51">
<path transform="matrix(.001,0,0,.001,0,0)" d="M406 393C453 383 490 362 516 330 542 298 556 258 556 212 556 140 531 84 482 45 432 6 362-13 271-13 240-13 208-10 176-4 144 1 110 10 76 22V117C103 101 133 89 166 81 198 73 232 69 268 69 330 69 377 81 409 105 441 129 458 165 458 212 458 254 443 288 413 312 383 336 341 349 287 349H202V430H291C339 430 376 439 402 459 428 478 441 506 441 543 441 580 427 609 401 629 374 649 336 659 287 659 260 659 231 656 200 650 169 644 135 635 98 623V711C135 721 170 729 203 734 235 739 266 742 296 742 370 742 429 725 473 691 517 657 539 611 539 553 539 513 527 479 504 451 481 423 448 403 406 393Z"/>
</g>
<g id="font_8_52">
<path transform="matrix(.001,0,0,.001,0,0)" d="M378 643 129 254H378V643ZM352 729H476V254H580V172H476V0H378V172H49V267L352 729Z"/>
</g>
<g id="font_8_53">
<path transform="matrix(.001,0,0,.001,0,0)" d="M108 729H495V646H198V467C212 472 227 476 241 478 255 480 270 482 284 482 365 482 429 459 477 415 525 370 549 310 549 234 549 155 524 94 475 51 426 8 357-13 269-13 238-13 207-10 175-6 143-1 111 6 77 17V116C106 100 136 88 168 80 199 72 232 69 267 69 323 69 368 83 401 113 433 143 450 183 450 234 450 284 433 324 401 354 368 384 323 399 267 399 241 399 214 396 188 390 162 384 135 375 108 363V729Z"/>
</g>
<g id="font_8_54">
<path transform="matrix(.001,0,0,.001,0,0)" d="M330 404C286 404 251 388 225 358 199 328 186 286 186 234 186 181 199 139 225 109 251 79 286 64 330 64 374 64 409 79 435 109 461 139 474 181 474 234 474 286 461 328 435 358 409 388 374 404 330 404ZM526 713V623C501 635 476 644 451 650 425 656 400 659 376 659 310 659 260 637 226 593 192 549 172 482 168 394 187 422 211 444 240 459 269 474 301 482 336 482 409 482 467 459 509 415 551 371 573 310 573 234 573 159 550 99 506 54 462 9 403-13 330-13 246-13 181 19 137 83 92 147 70 241 70 364 70 479 97 571 152 639 206 707 280 742 372 742 396 742 421 739 447 735 472 730 498 723 526 713Z"/>
</g>
<g id="font_8_84">
<path transform="matrix(.001,0,0,.001,0,0)" d="M-2 729H614V646H355V0H256V646H-2V729Z"/>
</g>
<g id="font_8_114">
<path transform="matrix(.001,0,0,.001,0,0)" d="M411 463C401 469 390 473 378 476 366 478 353 480 339 480 288 480 249 463 222 430 194 397 181 350 181 288V0H91V547H181V462C199 495 224 520 254 536 284 552 321 560 365 560 371 560 378 559 386 559 393 558 401 557 411 555V463Z"/>
</g>
<g id="font_8_97">
<path transform="matrix(.001,0,0,.001,0,0)" d="M343 275C270 275 220 266 192 250 164 233 150 205 150 165 150 133 160 107 181 89 202 70 231 61 267 61 317 61 357 78 387 114 417 149 432 196 432 255V275H343ZM522 312V0H432V83C411 49 385 25 355 10 325-5 287-13 243-13 187-13 142 2 109 33 76 64 60 106 60 159 60 220 80 266 122 298 163 329 224 345 306 345H432V354C432 395 418 427 391 450 364 472 326 484 277 484 245 484 215 480 185 472 155 464 127 453 100 439V522C132 534 164 544 195 550 226 556 256 560 286 560 365 560 424 539 463 498 502 457 522 395 522 312Z"/>
</g>
<g id="font_8_105">
<path transform="matrix(.001,0,0,.001,0,0)" d="M94 547H184V0H94V547ZM94 760H184V646H94V760Z"/>
</g>
<g id="font_8_110">
<path transform="matrix(.001,0,0,.001,0,0)" d="M549 330V0H459V327C459 379 448 417 428 443 408 469 378 482 338 482 289 482 251 466 223 435 195 404 181 362 181 309V0H91V547H181V462C202 494 227 519 257 535 286 551 320 560 358 560 420 560 468 540 500 501 532 462 549 405 549 330Z"/>
</g>
<g id="font_8_103">
<path transform="matrix(.001,0,0,.001,0,0)" d="M454 280C454 344 440 395 414 431 387 467 349 485 301 485 253 485 215 467 188 431 161 395 148 344 148 280 148 215 161 165 188 129 215 93 253 75 301 75 349 75 387 93 414 129 440 165 454 215 454 280ZM544 68C544-24 523-93 482-139 440-184 377-207 292-207 260-207 231-204 203-200 175-195 147-188 121-178V-91C147-105 173-115 199-122 225-129 251-133 278-133 336-133 380-117 410-87 439-56 454-10 454 52V96C435 64 411 40 382 24 353 8 319 0 279 0 211 0 157 25 116 76 75 127 55 195 55 280 55 364 75 432 116 483 157 534 211 560 279 560 319 560 353 552 382 536 411 520 435 496 454 464V547H544V68Z"/>
</g>
<g id="font_8_32">
</g>
<g id="font_8_83">
<path transform="matrix(.001,0,0,.001,0,0)" d="M535 705V609C497 627 462 640 429 649 395 657 363 662 333 662 279 662 237 651 208 631 179 610 165 580 165 542 165 510 174 485 194 469 213 452 250 439 304 429L364 417C437 403 491 378 526 343 561 307 579 260 579 201 579 130 555 77 508 41 460 5 391-13 300-13 265-13 228-9 189-2 150 5 110 16 69 32V134C109 111 148 94 186 83 224 71 262 66 300 66 356 66 399 77 430 99 460 121 476 152 476 194 476 230 465 258 443 278 421 298 385 313 335 323L275 335C201 349 148 372 115 404 82 435 66 478 66 534 66 598 88 649 134 686 179 723 242 742 322 742 356 742 390 739 426 733 461 727 497 717 535 705Z"/>
</g>
<g id="font_8_116">
<path transform="matrix(.001,0,0,.001,0,0)" d="M183 702V547H368V477H183V180C183 135 189 106 201 94 213 81 238 75 276 75H368V0H276C206 0 158 13 132 39 106 65 93 112 93 180V477H27V547H93V702H183Z"/>
</g>
<g id="font_8_101">
<path transform="matrix(.001,0,0,.001,0,0)" d="M562 296V252H149C153 190 171 142 205 110 238 78 284 62 344 62 378 62 412 66 444 74 476 82 509 95 541 113V28C509 14 476 3 442-3 408-9 373-13 339-13 251-13 182 12 131 62 80 112 55 181 55 268 55 357 79 428 127 481 175 533 241 560 323 560 397 560 455 536 498 489 540 441 562 377 562 296ZM472 322C471 371 457 410 431 440 404 469 368 484 324 484 274 484 234 469 204 441 174 413 156 373 152 322H472Z"/>
</g>
<g id="font_8_112">
<path transform="matrix(.001,0,0,.001,0,0)" d="M181 82V-207H91V547H181V464C199 496 223 520 252 536 281 552 316 560 356 560 422 560 476 533 518 481 559 428 580 359 580 273 580 187 559 117 518 65 476 13 422-13 356-13 316-13 281-5 252 10 223 25 199 49 181 82ZM487 273C487 339 473 390 446 428 418 466 381 485 334 485 286 485 249 466 222 428 194 390 181 339 181 273 181 207 194 155 222 117 249 79 286 61 334 61 381 61 418 79 446 117 473 155 487 207 487 273Z"/>
</g>
<g id="font_8_115">
<path transform="matrix(.001,0,0,.001,0,0)" d="M443 531V446C417 458 391 468 364 475 336 481 308 485 279 485 234 485 200 478 178 464 156 450 145 430 145 403 145 382 153 366 169 354 185 342 217 330 265 320L296 313C360 299 405 279 432 255 458 230 472 195 472 151 472 100 452 60 412 31 372 1 316-13 246-13 216-13 186-10 154-5 122 0 89 8 54 20V113C87 95 120 82 152 74 184 65 216 61 248 61 290 61 323 68 346 82 368 96 380 117 380 144 380 168 371 187 355 200 339 213 303 226 247 238L216 245C160 257 119 275 95 299 70 323 58 356 58 399 58 450 76 490 112 518 148 546 200 560 268 560 301 560 332 557 362 552 391 547 418 540 443 531Z"/>
</g>
<g id="font_8_55">
<path transform="matrix(.001,0,0,.001,0,0)" d="M82 729H551V687L286 0H183L432 646H82V729Z"/>
</g>
<g id="font_8_69">
<path transform="matrix(.001,0,0,.001,0,0)" d="M98 729H559V646H197V430H544V347H197V83H568V0H98V729Z"/>
</g>
<g id="font_8_108">
<path transform="matrix(.001,0,0,.001,0,0)" d="M94 760H184V0H94V760Z"/>
</g>
<g id="font_8_111">
<path transform="matrix(.001,0,0,.001,0,0)" d="M306 484C258 484 220 465 192 427 164 389 150 338 150 273 150 207 163 156 191 118 219 80 257 62 306 62 354 62 392 80 420 118 448 156 462 207 462 273 462 337 448 389 420 427 392 465 354 484 306 484ZM306 560C384 560 445 534 490 484 534 433 557 363 557 273 557 183 534 113 490 63 445 12 384-13 306-13 227-13 165 12 121 63 77 113 55 183 55 273 55 363 77 433 121 484 165 534 227 560 306 560Z"/>
</g>
<g id="font_8_82">
<path transform="matrix(.001,0,0,.001,0,0)" d="M444 342C465 334 486 319 506 296 526 272 546 240 566 199L666 0H560L467 187C443 235 419 268 397 284 374 300 343 308 304 308H197V0H98V729H321C404 729 466 711 507 677 548 642 569 589 569 519 569 473 558 434 537 404 515 374 484 353 444 342ZM197 648V389H321C368 389 404 400 428 422 452 444 465 476 465 519 465 561 452 593 428 615 404 637 368 648 321 648H197Z"/>
</g>
<clipPath id="clip_9">
<path transform="matrix(.08064,0,0,-.08064,-.0000076293949,163.9903)" d="M263.938 150.375H2423.938V1950.375H263.938Z"/>
</clipPath>
<clipPath id="clip_10">
<path transform="matrix(.08064,0,0,-.08064,-.0000076293949,163.9903)" d="M263.938 150.375H2423.938V1950.375H263.938Z"/>
</clipPath>
<clipPath id="clip_11">
<path transform="matrix(.08064,0,0,-.08064,-.0000076293949,163.9903)" d="M263.938 150.375H2423.938V1950.375H263.938Z"/>
</clipPath>
<clipPath id="clip_12">
<path transform="matrix(.08064,0,0,-.08064,-.0000076293949,163.9903)" d="M263.938 150.375H2423.938V1950.375H263.938Z"/>
</clipPath>
<clipPath id="clip_13">
<path transform="matrix(.08064,0,0,-.08064,-.0000076293949,163.9903)" d="M263.938 150.375H2423.938V1950.375H263.938Z"/>
</clipPath>
<clipPath id="clip_14">
<path transform="matrix(.08064,0,0,-.08064,-.0000076293949,163.9903)" d="M263.938 150.375H2423.938V1950.375H263.938Z"/>
</clipPath>
<g id="font_8_57">
<path transform="matrix(.001,0,0,.001,0,0)" d="M110 15V105C134 93 159 84 185 78 210 72 235 69 260 69 324 69 374 90 408 134 442 178 462 244 468 334 448 306 424 284 396 269 367 254 335 247 300 247 226 247 168 269 126 313 84 357 63 417 63 494 63 568 85 628 129 674 173 719 232 742 306 742 390 742 455 709 499 645 543 580 566 486 566 364 566 248 538 157 484 89 429 21 356-13 264-13 239-13 214-10 189-6 163-2 137 5 110 15ZM306 324C350 324 385 339 411 369 437 399 450 441 450 494 450 546 437 588 411 618 385 648 350 664 306 664 262 664 227 648 201 618 175 588 162 546 162 494 162 441 175 399 201 369 227 339 262 324 306 324Z"/>
</g>
<g id="font_8_120">
<path transform="matrix(.001,0,0,.001,0,0)" d="M549 547 351 281 559 0H453L294 215 135 0H29L241 286 47 547H153L298 352 443 547H549Z"/>
</g>
<g id="font_8_71">
<path transform="matrix(.001,0,0,.001,0,0)" d="M595 104V300H434V381H693V68C655 40 613 20 567 7 521-6 472-13 420-13 306-13 216 20 152 86 88 152 56 245 56 364 56 482 88 575 152 642 216 708 306 742 420 742 467 742 512 736 555 724 598 712 638 695 674 673V568C637 598 598 621 557 637 516 653 473 661 428 661 338 661 271 636 227 586 182 536 160 462 160 364 160 265 182 191 227 141 271 91 338 67 428 67 462 67 493 70 521 76 549 82 573 91 595 104Z"/>
</g>
<g id="font_15_110">
<path transform="matrix(.001,0,0,.001,0,0)" d="M557 330 493 0H403L467 327C469 342 471 355 473 367 475 379 476 388 476 395 476 422 467 443 450 459 432 474 408 482 378 482 330 482 288 466 253 434 218 402 195 358 185 303L125 0H35L141 547H231L213 461C237 492 267 516 303 534 338 551 375 560 414 560 462 560 499 547 526 521 552 495 566 458 566 411 566 399 565 387 564 374 562 360 560 346 557 330Z"/>
</g>
<g id="font_8_61">
<path transform="matrix(.001,0,0,.001,0,0)" d="M106 454H732V372H106V454ZM106 255H732V172H106V255Z"/>
</g>
<clipPath id="clip_16">
<path transform="matrix(.00580608,0,0,-.00580608,42.76641,16.303425)" d="M-1016-351H1660V1068H-1016Z"/>
</clipPath>
<clipPath id="clip_17">
<path transform="matrix(.00580608,0,0,-.00580608,42.76641,24.826069)" d="M-1016-351H1660V1068H-1016Z"/>
</clipPath>
<g id="font_8_45">
<path transform="matrix(.001,0,0,.001,0,0)" d="M49 314H312V234H49V314Z"/>
</g>
<clipPath id="clip_18">
<path transform="matrix(.00580608,0,0,-.00580608,48.546976,33.349966)" d="M-1016-351H1660V1068H-1016Z"/>
</clipPath>
<clipPath id="clip_19">
<path transform="matrix(.00580608,0,0,-.00580608,108.83344,16.303425)" d="M-1016-351H1660V1068H-1016Z"/>
</clipPath>
<clipPath id="clip_20">
<path transform="matrix(.00580608,0,0,-.00580608,108.83344,24.82732)" d="M-1016-351H1660V1068H-1016Z"/>
</clipPath>
<clipPath id="clip_21">
<path transform="matrix(.00580608,0,0,-.00580608,108.83344,33.35123)" d="M-1016-351H1660V1068H-1016Z"/>
</clipPath>
</defs>
<g clip-path="url(#clip_0)">
<g clip-path="url(#clip_1)">
<path transform="matrix(.08064,0,0,-.08064,0,163.9903)" d="M0 0H2490.602V2033.609H0Z" fill="#ffffff"/>
<path transform="matrix(.08064,0,0,-.08064,0,163.9903)" d="M263.938 150.375H2423.938V1950.375H263.938Z" fill="#ffffff"/>
<g clip-path="url(#clip_2)">
<path transform="matrix(.08064,0,0,-.08064,0,163.9903)" d="M263.938 232.193V232.193H371.938L479.938 413.796 587.938 635.108 695.938 935.323 803.938 1072.98 911.938 1203.523 1019.938 1326.041 1127.938 1387.333 1235.938 1351.463 1343.938 1327.076 1451.938 1382.031 1559.938 1373.19 1667.938 1419.254 1775.938 1360.236 1883.938 1472.768 1991.938 1396.443 2099.938 1434.648 2207.938 1463.458 2315.938 1422.738 2423.938 1485.766V1793.01L2315.938 1625.99 2207.938 1732.694 2099.938 1674.442 1991.938 1574.363 1883.938 1770.04 1775.938 1528.479 1667.938 1639.858 1559.938 1537.448 1451.938 1561.991 1343.938 1468.592 1235.938 1510.939 1127.938 1573.629 1019.938 1470.994 911.938 1301.404 803.938 1154.467 695.938 1017.248 587.938 778.809 479.938 656.187 371.938 232.193H263.938Z" fill="#1f77b4" fill-opacity=".1"/>
</g>
<g clip-path="url(#clip_3)">
<path transform="matrix(.08064,0,0,-.08064,0,163.9903)" d="M263.938 232.193V232.193H371.938 479.938L587.938 389.579 695.938 757.31 803.938 1029.317 911.938 1246.745 1019.938 1298.836 1127.938 1330.331 1235.938 1431.439 1343.938 1416.008 1451.938 1427.621 1559.938 1399.507 1667.938 1378.018 1775.938 1383.112 1883.938 1454.924 1991.938 1426.326 2099.938 1519.169 2207.938 1452.311 2315.938 1508.693 2423.938 1412.664V1622.846L2315.938 1868.557 2207.938 1716.01 2099.938 1821.959 1991.938 1613.219 1883.938 1701.696 1775.938 1558.679 1667.938 1547.872 1559.938 1596.266 1451.938 1652.36 1343.938 1610.44 1235.938 1636.741 1127.938 1476.299 1019.938 1425.369 911.938 1356.088 803.938 1109.174 695.938 863.891 587.938 633.425 479.938 232.193H371.938 263.938Z" fill="#ff7f0e" fill-opacity=".1"/>
</g>
<g clip-path="url(#clip_4)">
<path transform="matrix(.08064,0,0,-.08064,0,163.9903)" d="M263.938 232.193V232.193H371.938 479.938 587.938L695.938 472.381 803.938 494.468 911.938 709.474 1019.938 699.997 1127.938 851.174 1235.938 865.414 1343.938 958.766 1451.938 961.788 1559.938 1012.04 1667.938 1032.267 1775.938 1059.66 1883.938 1098.505 1991.938 1106.176 2099.938 1126.902 2207.938 1168.048 2315.938 1179.293 2423.938 1175.688V1268.644L2315.938 1273.35 2207.938 1260.275 2099.938 1213.085 1991.938 1190.371 1883.938 1181.907 1775.938 1140.662 1667.938 1112.049 1559.938 1091.609 1451.938 1042.392 1343.938 1039.44 1235.938 953.595 1127.938 941.554 1019.938 821.616 911.938 826.722 803.938 694.063 695.938 689.466 587.938 522.646 479.938 232.193H371.938 263.938Z" fill="#2ca02c" fill-opacity=".1"/>
</g>
<g clip-path="url(#clip_5)">
<path transform="matrix(.08064,0,0,-.08064,0,163.9903)" d="M263.938 232.193V232.193H371.938 479.938 587.938 695.938L803.938 403.195 911.938 700.95 1019.938 895.045 1127.938 1014.901 1235.938 1046.656 1343.938 1130.18 1451.938 1145.173 1559.938 1220.704 1667.938 1226.851 1775.938 1262.926 1883.938 1273.674 1991.938 1269.928 2099.938 1285.421 2207.938 1344.029 2315.938 1320.7 2423.938 1331.74V1473.006L2315.938 1454.284 2207.938 1492.885 2099.938 1408.708 1991.938 1389.686 1883.938 1391.938 1775.938 1375.963 1667.938 1332.428 1559.938 1322.793 1451.938 1233.751 1343.938 1216.718 1235.938 1126.96 1127.938 1094.545 1019.938 980.141 911.938 821.119 803.938 658.225 695.938 522.646 587.938 232.193H479.938 371.938 263.938Z" fill="#d62728" fill-opacity=".1"/>
</g>
<g clip-path="url(#clip_6)">
<path transform="matrix(.08064,0,0,-.08064,0,163.9903)" d="M263.938 232.193V232.193H371.938 479.938 587.938 695.938 803.938 911.938 1019.938 1127.938L1235.938 479.304 1343.938 555.123 1451.938 719.226 1559.938 772.092 1667.938 790.646 1775.938 882.367 1883.938 917.392 1991.938 984.29 2099.938 1023.524 2207.938 1035.032 2315.938 1074.453 2423.938 1126.878V1213.115L2315.938 1156.043 2207.938 1115.124 2099.938 1103.334 1991.938 1064.137 1883.938 1000.531 1775.938 968.792 1667.938 891.521 1559.938 875.653 1451.938 836.119 1343.938 730.399 1235.938 687.726 1127.938 573.544 1019.938 522.646 911.938 607.946 803.938 232.193H695.938 587.938 479.938 371.938 263.938Z" fill="#9467bd" fill-opacity=".1"/>
</g>
<g clip-path="url(#clip_7)">
<path transform="matrix(.08064,0,0,-.08064,0,163.9903)" d="M263.938 232.193V232.193H371.938 479.938 587.938 695.938 803.938 911.938 1019.938 1127.938 1235.938 1343.938 1451.938 1559.938 1667.938 1775.938 1883.938 1991.938 2099.938 2207.938L2315.938 569.511 2423.938 722.201V839.251L2315.938 741.48 2207.938 596.627 2099.938 453.671H1991.938L1883.938 232.193H1775.938 1667.938 1559.938 1451.938 1343.938 1235.938L1127.938 453.671H1019.938L911.938 485.766 803.938 232.193H695.938 587.938 479.938 371.938 263.938Z" fill="#8c564b" fill-opacity=".1"/>
</g>
<path transform="matrix(.08064,0,0,-.08064,0,163.9903)" d="M263.938 150.375V146.875"/>
<path transform="matrix(.08064,0,0,-.08064,0,163.9903)" stroke-width=".8" stroke-linecap="butt" stroke-linejoin="round" fill="none" stroke="#000000" d="M263.938 150.375V146.875"/>
<use data-text="0" xlink:href="#font_8_48" transform="matrix(5.8060805,0,0,-5.8060805,17.755291,156.8398)"/>
<use data-text="k" xlink:href="#font_8_107" transform="matrix(5.8060805,0,0,-5.8060805,21.447958,156.8398)"/>
<path transform="matrix(.08064,0,0,-.08064,0,163.9903)" d="M623.938 150.375V146.875"/>
<path transform="matrix(.08064,0,0,-.08064,0,163.9903)" stroke-width=".8" stroke-linecap="butt" stroke-linejoin="round" fill="none" stroke="#000000" d="M623.938 150.375V146.875"/>
<use data-text="1" xlink:href="#font_8_49" transform="matrix(5.8060805,0,0,-5.8060805,44.93853,156.8398)"/>
<use data-text="0" xlink:href="#font_8_48" transform="matrix(5.8060805,0,0,-5.8060805,48.6312,156.8398)"/>
<use data-text="k" xlink:href="#font_8_107" transform="matrix(5.8060805,0,0,-5.8060805,52.323865,156.8398)"/>
<path transform="matrix(.08064,0,0,-.08064,0,163.9903)" d="M983.938 150.375V146.875"/>
<path transform="matrix(.08064,0,0,-.08064,0,163.9903)" stroke-width=".8" stroke-linecap="butt" stroke-linejoin="round" fill="none" stroke="#000000" d="M983.938 150.375V146.875"/>
<use data-text="2" xlink:href="#font_8_50" transform="matrix(5.8060805,0,0,-5.8060805,73.96893,156.8398)"/>
<use data-text="0" xlink:href="#font_8_48" transform="matrix(5.8060805,0,0,-5.8060805,77.6616,156.8398)"/>
<use data-text="k" xlink:href="#font_8_107" transform="matrix(5.8060805,0,0,-5.8060805,81.35427,156.8398)"/>
<path transform="matrix(.08064,0,0,-.08064,0,163.9903)" d="M1343.938 150.375V146.875"/>
<path transform="matrix(.08064,0,0,-.08064,0,163.9903)" stroke-width=".8" stroke-linecap="butt" stroke-linejoin="round" fill="none" stroke="#000000" d="M1343.938 150.375V146.875"/>
<use data-text="3" xlink:href="#font_8_51" transform="matrix(5.8060805,0,0,-5.8060805,102.99934,156.8398)"/>
<use data-text="0" xlink:href="#font_8_48" transform="matrix(5.8060805,0,0,-5.8060805,106.692,156.8398)"/>
<use data-text="k" xlink:href="#font_8_107" transform="matrix(5.8060805,0,0,-5.8060805,110.384677,156.8398)"/>
<path transform="matrix(.08064,0,0,-.08064,0,163.9903)" d="M1703.938 150.375V146.875"/>
<path transform="matrix(.08064,0,0,-.08064,0,163.9903)" stroke-width=".8" stroke-linecap="butt" stroke-linejoin="round" fill="none" stroke="#000000" d="M1703.938 150.375V146.875"/>
<use data-text="4" xlink:href="#font_8_52" transform="matrix(5.8060805,0,0,-5.8060805,132.02974,156.8398)"/>
<use data-text="0" xlink:href="#font_8_48" transform="matrix(5.8060805,0,0,-5.8060805,135.72241,156.8398)"/>
<use data-text="k" xlink:href="#font_8_107" transform="matrix(5.8060805,0,0,-5.8060805,139.41507,156.8398)"/>
<path transform="matrix(.08064,0,0,-.08064,0,163.9903)" d="M2063.938 150.375V146.875"/>
<path transform="matrix(.08064,0,0,-.08064,0,163.9903)" stroke-width=".8" stroke-linecap="butt" stroke-linejoin="round" fill="none" stroke="#000000" d="M2063.938 150.375V146.875"/>
<use data-text="5" xlink:href="#font_8_53" transform="matrix(5.8060805,0,0,-5.8060805,161.06014,156.8398)"/>
<use data-text="0" xlink:href="#font_8_48" transform="matrix(5.8060805,0,0,-5.8060805,164.7528,156.8398)"/>
<use data-text="k" xlink:href="#font_8_107" transform="matrix(5.8060805,0,0,-5.8060805,168.44547,156.8398)"/>
<path transform="matrix(.08064,0,0,-.08064,0,163.9903)" d="M2423.938 150.375V146.875"/>
<path transform="matrix(.08064,0,0,-.08064,0,163.9903)" stroke-width=".8" stroke-linecap="butt" stroke-linejoin="round" fill="none" stroke="#000000" d="M2423.938 150.375V146.875"/>
<use data-text="6" xlink:href="#font_8_54" transform="matrix(5.8060805,0,0,-5.8060805,190.09053,156.8398)"/>
<use data-text="0" xlink:href="#font_8_48" transform="matrix(5.8060805,0,0,-5.8060805,193.7832,156.8398)"/>
<use data-text="k" xlink:href="#font_8_107" transform="matrix(5.8060805,0,0,-5.8060805,197.47586,156.8398)"/>
<use data-text="T" xlink:href="#font_8_84" transform="matrix(5.8060805,0,0,-5.8060805,87.87555,162.78195)"/>
<use data-text="r" xlink:href="#font_8_114" transform="matrix(5.8060805,0,0,-5.8060805,90.57015,162.78195)"/>
<use data-text="a" xlink:href="#font_8_97" transform="matrix(5.8060805,0,0,-5.8060805,92.95645,162.78195)"/>
<use data-text="i" xlink:href="#font_8_105" transform="matrix(5.8060805,0,0,-5.8060805,96.51558,162.78195)"/>
<use data-text="n" xlink:href="#font_8_110" transform="matrix(5.8060805,0,0,-5.8060805,98.12967,162.78195)"/>
<use data-text="i" xlink:href="#font_8_105" transform="matrix(5.8060805,0,0,-5.8060805,101.81072,162.78195)"/>
<use data-text="n" xlink:href="#font_8_110" transform="matrix(5.8060805,0,0,-5.8060805,103.42481,162.78195)"/>
<use data-text="g" xlink:href="#font_8_103" transform="matrix(5.8060805,0,0,-5.8060805,107.105869,162.78195)"/>
<use data-text=" " xlink:href="#font_8_32" transform="matrix(5.8060805,0,0,-5.8060805,110.79273,162.78195)"/>
<use data-text="S" xlink:href="#font_8_83" transform="matrix(5.8060805,0,0,-5.8060805,112.63906,162.78195)"/>
<use data-text="t" xlink:href="#font_8_116" transform="matrix(5.8060805,0,0,-5.8060805,116.32593,162.78195)"/>
<use data-text="e" xlink:href="#font_8_101" transform="matrix(5.8060805,0,0,-5.8060805,118.601909,162.78195)"/>
<use data-text="p" xlink:href="#font_8_112" transform="matrix(5.8060805,0,0,-5.8060805,122.172649,162.78195)"/>
<use data-text="s" xlink:href="#font_8_115" transform="matrix(5.8060805,0,0,-5.8060805,125.85951,162.78195)"/>
<path transform="matrix(.08064,0,0,-.08064,-.0000076293949,163.9903)" d="M263.938 232.193H260.438"/>
<path transform="matrix(.08064,0,0,-.08064,-.0000076293949,163.9903)" stroke-width=".8" stroke-linecap="butt" stroke-linejoin="round" fill="none" stroke="#000000" d="M263.938 232.193H260.438"/>
<use data-text="0" xlink:href="#font_8_48" transform="matrix(5.8060805,0,0,-5.8060805,17.025113,147.47187)"/>
<path transform="matrix(.08064,0,0,-.08064,-.0000076293949,163.9903)" d="M263.938 436.739H260.438"/>
<path transform="matrix(.08064,0,0,-.08064,-.0000076293949,163.9903)" stroke-width=".8" stroke-linecap="butt" stroke-linejoin="round" fill="none" stroke="#000000" d="M263.938 436.739H260.438"/>
<use data-text="2" xlink:href="#font_8_50" transform="matrix(5.8060805,0,0,-5.8060805,9.636473,130.97733)"/>
<use data-text="5" xlink:href="#font_8_53" transform="matrix(5.8060805,0,0,-5.8060805,13.32914,130.97733)"/>
<use data-text="0" xlink:href="#font_8_48" transform="matrix(5.8060805,0,0,-5.8060805,17.021807,130.97733)"/>
<path transform="matrix(.08064,0,0,-.08064,-.0000076293949,163.9903)" d="M263.938 641.284H260.438"/>
<path transform="matrix(.08064,0,0,-.08064,-.0000076293949,163.9903)" stroke-width=".8" stroke-linecap="butt" stroke-linejoin="round" fill="none" stroke="#000000" d="M263.938 641.284H260.438"/>
<use data-text="5" xlink:href="#font_8_53" transform="matrix(5.8060805,0,0,-5.8060805,9.636473,114.48277)"/>
<use data-text="0" xlink:href="#font_8_48" transform="matrix(5.8060805,0,0,-5.8060805,13.32914,114.48277)"/>
<use data-text="0" xlink:href="#font_8_48" transform="matrix(5.8060805,0,0,-5.8060805,17.021807,114.48277)"/>
<path transform="matrix(.08064,0,0,-.08064,-.0000076293949,163.9903)" d="M263.938 845.83H260.438"/>
<path transform="matrix(.08064,0,0,-.08064,-.0000076293949,163.9903)" stroke-width=".8" stroke-linecap="butt" stroke-linejoin="round" fill="none" stroke="#000000" d="M263.938 845.83H260.438"/>
<use data-text="7" xlink:href="#font_8_55" transform="matrix(5.8060805,0,0,-5.8060805,9.636473,97.98823)"/>
<use data-text="5" xlink:href="#font_8_53" transform="matrix(5.8060805,0,0,-5.8060805,13.32914,97.98823)"/>
<use data-text="0" xlink:href="#font_8_48" transform="matrix(5.8060805,0,0,-5.8060805,17.021807,97.98823)"/>
<path transform="matrix(.08064,0,0,-.08064,-.0000076293949,163.9903)" d="M263.938 1050.375H260.438"/>
<path transform="matrix(.08064,0,0,-.08064,-.0000076293949,163.9903)" stroke-width=".8" stroke-linecap="butt" stroke-linejoin="round" fill="none" stroke="#000000" d="M263.938 1050.375H260.438"/>
<use data-text="1" xlink:href="#font_8_49" transform="matrix(5.8060805,0,0,-5.8060805,5.9421527,81.49368)"/>
<use data-text="0" xlink:href="#font_8_48" transform="matrix(5.8060805,0,0,-5.8060805,9.63482,81.49368)"/>
<use data-text="0" xlink:href="#font_8_48" transform="matrix(5.8060805,0,0,-5.8060805,13.327487,81.49368)"/>
<use data-text="0" xlink:href="#font_8_48" transform="matrix(5.8060805,0,0,-5.8060805,17.020155,81.49368)"/>
<path transform="matrix(.08064,0,0,-.08064,-.0000076293949,163.9903)" d="M263.938 1254.92H260.438"/>
<path transform="matrix(.08064,0,0,-.08064,-.0000076293949,163.9903)" stroke-width=".8" stroke-linecap="butt" stroke-linejoin="round" fill="none" stroke="#000000" d="M263.938 1254.92H260.438"/>
<use data-text="1" xlink:href="#font_8_49" transform="matrix(5.8060805,0,0,-5.8060805,5.9421527,64.99914)"/>
<use data-text="2" xlink:href="#font_8_50" transform="matrix(5.8060805,0,0,-5.8060805,9.63482,64.99914)"/>
<use data-text="5" xlink:href="#font_8_53" transform="matrix(5.8060805,0,0,-5.8060805,13.327487,64.99914)"/>
<use data-text="0" xlink:href="#font_8_48" transform="matrix(5.8060805,0,0,-5.8060805,17.020155,64.99914)"/>
<path transform="matrix(.08064,0,0,-.08064,-.0000076293949,163.9903)" d="M263.938 1459.466H260.438"/>
<path transform="matrix(.08064,0,0,-.08064,-.0000076293949,163.9903)" stroke-width=".8" stroke-linecap="butt" stroke-linejoin="round" fill="none" stroke="#000000" d="M263.938 1459.466H260.438"/>
<use data-text="1" xlink:href="#font_8_49" transform="matrix(5.8060805,0,0,-5.8060805,5.9421527,48.504587)"/>
<use data-text="5" xlink:href="#font_8_53" transform="matrix(5.8060805,0,0,-5.8060805,9.63482,48.504587)"/>
<use data-text="0" xlink:href="#font_8_48" transform="matrix(5.8060805,0,0,-5.8060805,13.327487,48.504587)"/>
<use data-text="0" xlink:href="#font_8_48" transform="matrix(5.8060805,0,0,-5.8060805,17.020155,48.504587)"/>
<path transform="matrix(.08064,0,0,-.08064,-.0000076293949,163.9903)" d="M263.938 1664.011H260.438"/>
<path transform="matrix(.08064,0,0,-.08064,-.0000076293949,163.9903)" stroke-width=".8" stroke-linecap="butt" stroke-linejoin="round" fill="none" stroke="#000000" d="M263.938 1664.011H260.438"/>
<use data-text="1" xlink:href="#font_8_49" transform="matrix(5.8060805,0,0,-5.8060805,5.9421527,32.01004)"/>
<use data-text="7" xlink:href="#font_8_55" transform="matrix(5.8060805,0,0,-5.8060805,9.63482,32.01004)"/>
<use data-text="5" xlink:href="#font_8_53" transform="matrix(5.8060805,0,0,-5.8060805,13.327487,32.01004)"/>
<use data-text="0" xlink:href="#font_8_48" transform="matrix(5.8060805,0,0,-5.8060805,17.020155,32.01004)"/>
<path transform="matrix(.08064,0,0,-.08064,-.0000076293949,163.9903)" d="M263.938 1868.557H260.438"/>
<path transform="matrix(.08064,0,0,-.08064,-.0000076293949,163.9903)" stroke-width=".8" stroke-linecap="butt" stroke-linejoin="round" fill="none" stroke="#000000" d="M263.938 1868.557H260.438"/>
<use data-text="2" xlink:href="#font_8_50" transform="matrix(5.8060805,0,0,-5.8060805,5.9421527,15.515503)"/>
<use data-text="0" xlink:href="#font_8_48" transform="matrix(5.8060805,0,0,-5.8060805,9.63482,15.515503)"/>
<use data-text="0" xlink:href="#font_8_48" transform="matrix(5.8060805,0,0,-5.8060805,13.327487,15.515503)"/>
<use data-text="0" xlink:href="#font_8_48" transform="matrix(5.8060805,0,0,-5.8060805,17.020155,15.515503)"/>
<use data-text="E" xlink:href="#font_8_69" transform="matrix(0,-5.8060805,-5.8060805,-0,4.4112527,93.98658)"/>
<use data-text="l" xlink:href="#font_8_108" transform="matrix(0,-5.8060805,-5.8060805,-0,4.4112527,90.31714)"/>
<use data-text="o" xlink:href="#font_8_111" transform="matrix(0,-5.8060805,-5.8060805,-0,4.4112527,88.70305)"/>
<use data-text=" " xlink:href="#font_8_32" transform="matrix(0,-5.8060805,-5.8060805,-0,4.4112527,85.14973)"/>
<use data-text="R" xlink:href="#font_8_82" transform="matrix(0,-5.8060805,-5.8060805,-0,4.4112527,83.30339)"/>
<use data-text="a" xlink:href="#font_8_97" transform="matrix(0,-5.8060805,-5.8060805,-0,4.4112527,79.39532)"/>
<use data-text="t" xlink:href="#font_8_116" transform="matrix(0,-5.8060805,-5.8060805,-0,4.4112527,75.83619)"/>
<use data-text="i" xlink:href="#font_8_105" transform="matrix(0,-5.8060805,-5.8060805,-0,4.4112527,73.56021)"/>
<use data-text="n" xlink:href="#font_8_110" transform="matrix(0,-5.8060805,-5.8060805,-0,4.4112527,71.94612)"/>
<use data-text="g" xlink:href="#font_8_103" transform="matrix(0,-5.8060805,-5.8060805,-0,4.4112527,68.26506)"/>
<g clip-path="url(#clip_9)">
<path transform="matrix(.08064,0,0,-.08064,-.0000076293949,163.9903)" stroke-width="6" stroke-linecap="square" stroke-linejoin="round" fill="none" stroke="#1f77b4" d="M263.938 232.193H371.938L479.938 578.952 587.938 721.531 695.938 977.77 803.938 1112.461 911.938 1247.413 1019.938 1383.612 1127.938 1454.58 1235.938 1412.658 1343.938 1383.612 1451.938 1447.885 1559.938 1435.278 1667.938 1493.093 1775.938 1423.579 1883.938 1557.176 1991.938 1461.567 2099.938 1511.623 2207.938 1544.442 2315.938 1493.093 2423.938 1571.087"/>
</g>
<g clip-path="url(#clip_10)">
<path transform="matrix(.08064,0,0,-.08064,-.0000076293949,163.9903)" stroke-width="6" stroke-linecap="square" stroke-linejoin="round" fill="none" stroke="#ff7f0e" d="M263.938 232.193H371.938 479.938L587.938 556.308 695.938 817.313 803.938 1068.878 911.938 1294.151 1019.938 1351.204 1127.938 1388.121 1235.938 1502.08 1343.938 1484.597 1451.938 1502.08 1559.938 1468.876 1667.938 1441.458 1775.938 1447.885 1883.938 1532.699 1991.938 1493.093 2099.938 1603.53 2207.938 1532.699 2315.938 1603.53 2423.938 1484.597"/>
</g>
<g clip-path="url(#clip_11)">
<path transform="matrix(.08064,0,0,-.08064,-.0000076293949,163.9903)" stroke-width="6" stroke-linecap="square" stroke-linejoin="round" fill="none" stroke="#2ca02c" d="M263.938 232.193H371.938 479.938L587.938 397.258 695.938 616.153 803.938 624.209 911.938 777.019 1019.938 770.521 1127.938 899.856 1235.938 912.592 1343.938 1000.111 1451.938 1003.038 1559.938 1051.796 1667.938 1071.735 1775.938 1099.174 1883.938 1138.361 1991.938 1146.237 2099.938 1167.436 2207.938 1210.339 2315.938 1222.115 2423.938 1218.133"/>
</g>
<g clip-path="url(#clip_12)">
<path transform="matrix(.08064,0,0,-.08064,-.0000076293949,163.9903)" stroke-width="6" stroke-linecap="square" stroke-linejoin="round" fill="none" stroke="#d62728" d="M263.938 232.193H371.938 479.938 587.938L695.938 397.258 803.938 578.952 911.938 770.521 1019.938 939.96 1127.938 1054.639 1235.938 1086.095 1343.938 1170.804 1451.938 1186.381 1559.938 1265.898 1667.938 1273.241 1775.938 1311.361 1883.938 1323.731 1991.938 1320.563 2099.938 1336.96 2207.938 1402.411 2315.938 1374.933 2423.938 1388.121"/>
</g>
<g clip-path="url(#clip_13)">
<path transform="matrix(.08064,0,0,-.08064,-.0000076293949,163.9903)" stroke-width="6" stroke-linecap="square" stroke-linejoin="round" fill="none" stroke="#9467bd" d="M263.938 232.193H371.938 479.938 587.938 695.938 803.938L911.938 514.324 1019.938 397.258 1127.938 477.878 1235.938 616.153 1343.938 665.472 1451.938 786.37 1559.938 829.985 1667.938 846.578 1775.938 928.25 1883.938 960.825 1991.938 1024.722 2099.938 1063.175 2207.938 1074.596 2315.938 1113.953 2423.938 1167.436"/>
</g>
<g clip-path="url(#clip_14)">
<path transform="matrix(.08064,0,0,-.08064,-.0000076293949,163.9903)" stroke-width="6" stroke-linecap="square" stroke-linejoin="round" fill="none" stroke="#8c564b" d="M263.938 232.193H371.938 479.938 587.938 695.938 803.938L911.938 356.01 1019.938 298.023H1127.938L1235.938 232.193H1343.938 1451.938 1559.938 1667.938 1775.938 1883.938L1991.938 298.023H2099.938L2207.938 497.22 2315.938 677.171 2423.938 789.389"/>
</g>
<path transform="matrix(.08064,0,0,-.08064,-.0000076293949,163.9903)" stroke-width=".8" stroke-linecap="square" stroke-miterlimit="10" stroke-linejoin="miter" fill="none" stroke="#000000" d="M263.938 150.375V1950.375"/>
<path transform="matrix(.08064,0,0,-.08064,-.0000076293949,163.9903)" stroke-width=".8" stroke-linecap="square" stroke-miterlimit="10" stroke-linejoin="miter" fill="none" stroke="#000000" d="M263.938 150.375H2423.938"/>
<use data-text="9" xlink:href="#font_8_57" transform="matrix(6.9672968,0,0,-6.9672968,95.94585,5.269348)"/>
<use data-text="x" xlink:href="#font_8_120" transform="matrix(6.9672968,0,0,-6.9672968,100.377048,5.269348)"/>
<use data-text="9" xlink:href="#font_8_57" transform="matrix(6.9672968,0,0,-6.9672968,104.501689,5.269348)"/>
<use data-text=" " xlink:href="#font_8_32" transform="matrix(6.9672968,0,0,-6.9672968,108.932888,5.269348)"/>
<use data-text="G" xlink:href="#font_8_71" transform="matrix(6.9672968,0,0,-6.9672968,111.14849,5.269348)"/>
<use data-text="o" xlink:href="#font_8_111" transform="matrix(6.9672968,0,0,-6.9672968,116.54814,5.269348)"/>
<path transform="matrix(.08064,0,0,-.08064,-.0000076293949,163.9903)" stroke-width="6" stroke-linecap="square" stroke-linejoin="round" fill="none" stroke="#1f77b4" d="M328.737 1856.072H400.737 472.737"/>
<use data-text="0" xlink:href="#font_8_48" transform="matrix(4.064256,0,0,-4.064256,46.59366,17.255986)"/>
<use data-text=" " xlink:href="#font_8_32" transform="matrix(5.8060805,0,0,-5.8060805,49.338224,16.303425)"/>
<use data-text="n" xlink:href="#font_15_110" transform="matrix(5.8060805,0,0,-5.8060805,51.183809,16.303425)"/>
<use data-text="=" xlink:href="#font_8_61" transform="matrix(5.8060805,0,0,-5.8060805,55.994798,16.303425)"/>
<use data-text="2" xlink:href="#font_8_50" transform="matrix(5.8060805,0,0,-5.8060805,61.990827,16.303425)"/>
<use data-text="0" xlink:href="#font_8_48" transform="matrix(5.8060805,0,0,-5.8060805,65.68483,16.303425)"/>
<use data-text="0" xlink:href="#font_8_48" transform="matrix(5.8060805,0,0,-5.8060805,69.37884,16.303425)"/>
<g clip-path="url(#clip_16)">
<path transform="matrix(.00580608,0,0,-.00580608,42.76641,16.303425)" d="M409 254 410 367C410 443 381 482 323 483 279 483 244 465 218 429 184 384 161 332 150 273 136 201 137 148 155 114 173 79 202 62 242 62 285 62 325 96 362 166L409 254ZM338 559C440 561 490 509 489 404 489 404 514 451 565 547H645L487 250 486 144C486 128 490 113 499 100 509 84 519 76 530 76H573L559 0H504C473 0 447 13 425 41 415 55 409 76 409 104 387 69 359 37 323 8 305-5 273-11 227-11 151-10 99 14 71 62 43 112 37 183 55 273 73 369 108 440 158 484 213 533 273 558 338 559Z"/>
</g>
<path transform="matrix(.08064,0,0,-.08064,-.0000076293949,163.9903)" stroke-width="6" stroke-linecap="square" stroke-linejoin="round" fill="none" stroke="#ff7f0e" d="M328.737 1750.384H400.737 472.737"/>
<use data-text="0" xlink:href="#font_8_48" transform="matrix(4.064256,0,0,-4.064256,46.460416,25.77863)"/>
<use data-text=" " xlink:href="#font_8_32" transform="matrix(5.8060805,0,0,-5.8060805,49.204984,24.826069)"/>
<use data-text="n" xlink:href="#font_15_110" transform="matrix(5.8060805,0,0,-5.8060805,51.050569,24.826069)"/>
<use data-text="=" xlink:href="#font_8_61" transform="matrix(5.8060805,0,0,-5.8060805,55.861558,24.826069)"/>
<use data-text="2" xlink:href="#font_8_50" transform="matrix(5.8060805,0,0,-5.8060805,61.857583,24.826069)"/>
<use data-text="0" xlink:href="#font_8_48" transform="matrix(5.8060805,0,0,-5.8060805,65.55159,24.826069)"/>
<use data-text="0" xlink:href="#font_8_48" transform="matrix(5.8060805,0,0,-5.8060805,69.24559,24.826069)"/>
<g clip-path="url(#clip_17)">
<path transform="matrix(.00580608,0,0,-.00580608,42.76641,24.826069)" d="M-12-207 134 547H224L158 207C156 199 155 191 154 183 153 175 153 166 153 158 153 128 162 104 181 88 200 72 227 64 263 64 311 64 349 77 379 105 409 132 429 173 440 228L502 547H592L510 126C508 120 507 114 507 110 507 106 507 102 507 98 507 88 509 80 513 76 517 71 523 69 532 69 535 69 539 69 545 71 551 73 559 76 570 80L556 8C542 1 528-3 515-7 502-11 489-13 477-13 455-13 438-6 426 7 414 20 408 39 408 63 390 37 368 17 343 5 317-7 288-13 254-13 223-13 196-6 174 7 152 21 137 39 130 62L77-207H-12Z"/>
</g>
<path transform="matrix(.08064,0,0,-.08064,-.0000076293949,163.9903)" stroke-width="6" stroke-linecap="square" stroke-linejoin="round" fill="none" stroke="#2ca02c" d="M328.737 1644.681H400.737 472.737"/>
<use data-text="g" xlink:href="#font_8_103" transform="matrix(5.8060805,0,0,-5.8060805,42.76641,33.349966)"/>
<use data-text="-" xlink:href="#font_8_45" transform="matrix(5.8060805,0,0,-5.8060805,46.45191,33.349966)"/>
<use data-text="0" xlink:href="#font_8_48" transform="matrix(4.064256,0,0,-4.064256,52.37422,34.302526)"/>
<use data-text=" " xlink:href="#font_8_32" transform="matrix(5.8060805,0,0,-5.8060805,55.11879,33.349966)"/>
<use data-text="n" xlink:href="#font_15_110" transform="matrix(5.8060805,0,0,-5.8060805,56.964376,33.349966)"/>
<use data-text="=" xlink:href="#font_8_61" transform="matrix(5.8060805,0,0,-5.8060805,61.775377,33.349966)"/>
<use data-text="1" xlink:href="#font_8_49" transform="matrix(5.8060805,0,0,-5.8060805,67.7714,33.349966)"/>
<use data-text="6" xlink:href="#font_8_54" transform="matrix(5.8060805,0,0,-5.8060805,71.46541,33.349966)"/>
<g clip-path="url(#clip_18)">
<path transform="matrix(.00580608,0,0,-.00580608,48.546976,33.349966)" d="M409 254 410 367C410 443 381 482 323 483 279 483 244 465 218 429 184 384 161 332 150 273 136 201 137 148 155 114 173 79 202 62 242 62 285 62 325 96 362 166L409 254ZM338 559C440 561 490 509 489 404 489 404 514 451 565 547H645L487 250 486 144C486 128 490 113 499 100 509 84 519 76 530 76H573L559 0H504C473 0 447 13 425 41 415 55 409 76 409 104 387 69 359 37 323 8 305-5 273-11 227-11 151-10 99 14 71 62 43 112 37 183 55 273 73 369 108 440 158 484 213 533 273 558 338 559Z"/>
</g>
<path transform="matrix(.08064,0,0,-.08064,-.0000076293949,163.9903)" stroke-width="6" stroke-linecap="square" stroke-linejoin="round" fill="none" stroke="#d62728" d="M1076.338 1856.072H1148.338 1220.338"/>
<use data-text="g" xlink:href="#font_8_103" transform="matrix(5.8060805,0,0,-5.8060805,103.05288,16.303425)"/>
<use data-text="-" xlink:href="#font_8_45" transform="matrix(5.8060805,0,0,-5.8060805,106.73838,16.303425)"/>
<use data-text="0" xlink:href="#font_8_48" transform="matrix(4.064256,0,0,-4.064256,112.52745,17.255986)"/>
<use data-text=" " xlink:href="#font_8_32" transform="matrix(5.8060805,0,0,-5.8060805,115.27202,16.303425)"/>
<use data-text="n" xlink:href="#font_15_110" transform="matrix(5.8060805,0,0,-5.8060805,117.1176,16.303425)"/>
<use data-text="=" xlink:href="#font_8_61" transform="matrix(5.8060805,0,0,-5.8060805,121.928607,16.303425)"/>
<use data-text="1" xlink:href="#font_8_49" transform="matrix(5.8060805,0,0,-5.8060805,127.92463,16.303425)"/>
<use data-text="6" xlink:href="#font_8_54" transform="matrix(5.8060805,0,0,-5.8060805,131.61864,16.303425)"/>
<g clip-path="url(#clip_19)">
<path transform="matrix(.00580608,0,0,-.00580608,108.83344,16.303425)" d="M-12-207 134 547H224L158 207C156 199 155 191 154 183 153 175 153 166 153 158 153 128 162 104 181 88 200 72 227 64 263 64 311 64 349 77 379 105 409 132 429 173 440 228L502 547H592L510 126C508 120 507 114 507 110 507 106 507 102 507 98 507 88 509 80 513 76 517 71 523 69 532 69 535 69 539 69 545 71 551 73 559 76 570 80L556 8C542 1 528-3 515-7 502-11 489-13 477-13 455-13 438-6 426 7 414 20 408 39 408 63 390 37 368 17 343 5 317-7 288-13 254-13 223-13 196-6 174 7 152 21 137 39 130 62L77-207H-12Z"/>
</g>
<path transform="matrix(.08064,0,0,-.08064,-.0000076293949,163.9903)" stroke-width="6" stroke-linecap="square" stroke-linejoin="round" fill="none" stroke="#9467bd" d="M1076.338 1750.369H1148.338 1220.338"/>
<use data-text="g" xlink:href="#font_8_103" transform="matrix(5.8060805,0,0,-5.8060805,103.05288,24.82732)"/>
<use data-text="-" xlink:href="#font_8_45" transform="matrix(5.8060805,0,0,-5.8060805,106.73838,24.82732)"/>
<use data-text="0" xlink:href="#font_8_48" transform="matrix(4.064256,0,0,-4.064256,112.66069,25.77988)"/>
<use data-text=" " xlink:href="#font_8_32" transform="matrix(5.8060805,0,0,-5.8060805,115.40526,24.82732)"/>
<use data-text="n" xlink:href="#font_15_110" transform="matrix(5.8060805,0,0,-5.8060805,117.25084,24.82732)"/>
<use data-text="=" xlink:href="#font_8_61" transform="matrix(5.8060805,0,0,-5.8060805,122.061847,24.82732)"/>
<use data-text="2" xlink:href="#font_8_50" transform="matrix(5.8060805,0,0,-5.8060805,128.05788,24.82732)"/>
<g clip-path="url(#clip_20)">
<path transform="matrix(.00580608,0,0,-.00580608,108.83344,24.82732)" d="M409 254 410 367C410 443 381 482 323 483 279 483 244 465 218 429 184 384 161 332 150 273 136 201 137 148 155 114 173 79 202 62 242 62 285 62 325 96 362 166L409 254ZM338 559C440 561 490 509 489 404 489 404 514 451 565 547H645L487 250 486 144C486 128 490 113 499 100 509 84 519 76 530 76H573L559 0H504C473 0 447 13 425 41 415 55 409 76 409 104 387 69 359 37 323 8 305-5 273-11 227-11 151-10 99 14 71 62 43 112 37 183 55 273 73 369 108 440 158 484 213 533 273 558 338 559Z"/>
</g>
<path transform="matrix(.08064,0,0,-.08064,-.0000076293949,163.9903)" stroke-width="6" stroke-linecap="square" stroke-linejoin="round" fill="none" stroke="#8c564b" d="M1076.338 1644.666H1148.338 1220.338"/>
<use data-text="g" xlink:href="#font_8_103" transform="matrix(5.8060805,0,0,-5.8060805,103.05288,33.35123)"/>
<use data-text="-" xlink:href="#font_8_45" transform="matrix(5.8060805,0,0,-5.8060805,106.73838,33.35123)"/>
<use data-text="0" xlink:href="#font_8_48" transform="matrix(4.064256,0,0,-4.064256,112.52745,34.30379)"/>
<use data-text=" " xlink:href="#font_8_32" transform="matrix(5.8060805,0,0,-5.8060805,115.27202,33.35123)"/>
<use data-text="n" xlink:href="#font_15_110" transform="matrix(5.8060805,0,0,-5.8060805,117.1176,33.35123)"/>
<use data-text="=" xlink:href="#font_8_61" transform="matrix(5.8060805,0,0,-5.8060805,121.928607,33.35123)"/>
<use data-text="2" xlink:href="#font_8_50" transform="matrix(5.8060805,0,0,-5.8060805,127.92463,33.35123)"/>
<g clip-path="url(#clip_21)">
<path transform="matrix(.00580608,0,0,-.00580608,108.83344,33.35123)" d="M-12-207 134 547H224L158 207C156 199 155 191 154 183 153 175 153 166 153 158 153 128 162 104 181 88 200 72 227 64 263 64 311 64 349 77 379 105 409 132 429 173 440 228L502 547H592L510 126C508 120 507 114 507 110 507 106 507 102 507 98 507 88 509 80 513 76 517 71 523 69 532 69 535 69 539 69 545 71 551 73 559 76 570 80L556 8C542 1 528-3 515-7 502-11 489-13 477-13 455-13 438-6 426 7 414 20 408 39 408 63 390 37 368 17 343 5 317-7 288-13 254-13 223-13 196-6 174 7 152 21 137 39 130 62L77-207H-12Z"/>
</g>
</g>
</g>
</svg>
