<svg xmlns="http://www.w3.org/2000/svg" xmlns:xlink="http://www.w3.org/1999/xlink" version="1.1" width="602.52642pt" height="491.9709pt" viewBox="0 0 200.84214 163.9903">
<defs>
<clipPath id="clip_0">
<path transform="matrix(1,0,0,-1,-74.069,735.9253)" d="M74.069 571.935H274.91114V735.9253H74.069Z"/>
</clipPath>
<clipPath id="clip_1">
<path transform="matrix(.08064,0,0,-.08064,0,163.9903)" d="M0 0H2490.6016V2033.6094H0Z"/>
</clipPath>
<clipPath id="clip_2">
<path transform="matrix(.08064,0,0,-.08064,0,163.9903)" d="M263.938 150.375H2423.938V1950.375H263.938Z"/>
</clipPath>
<clipPath id="clip_3">
<path transform="matrix(.08064,0,0,-.08064,0,163.9903)" d="M263.938 150.375H2423.938V1950.375H263.938Z"/>
</clipPath>
<clipPath id="clip_4">
<path transform="matrix(.08064,0,0,-.08064,0,163.9903)" d="M263.938 150.375H2423.938V1950.375H263.938Z"/>
</clipPath>
<clipPath id="clip_5">
<path transform="matrix(.08064,0,0,-.08064,0,163.9903)" d="M263.938 150.375H2423.938V1950.375H263.938Z"/>
</clipPath>
<clipPath id="clip_6">
<path transform="matrix(.08064,0,0,-.08064,0,163.9903)" d="M263.938 150.375H2423.938V1950.375H263.938Z"/>
</clipPath>
<clipPath id="clip_7">
<path transform="matrix(.08064,0,0,-.08064,0,163.9903)" d="M263.938 150.375H2423.938V1950.375H263.938Z"/>
</clipPath>
<g id="font_8_48">
<path transform="matrix(.001,0,0,.001,0,0)" d="M318 664C267 664 229 639 203 589 177 539 165 464 165 364 165 264 177 189 203 139 229 89 267 64 318 64 369 64 407 89 433 139 458 189 471 264 471 364 471 464 458 539 433 589 407 639 369 664 318 664ZM318 742C399 742 461 709 505 645 548 580 570 486 570 364 570 241 548 147 505 83 461 19 399-13 317-13 235-13 173 19 130 83 87 147 66 241 66 364 66 486 87 580 130 645 173 709 236 742 318 742Z"/>
</g>
<g id="font_8_107">
<path transform="matrix(.001,0,0,.001,0,0)" d="M91 760H181V311L449 547H564L274 291 576 0H459L181 267V0H91V760Z"/>
</g>
<g id="font_8_49">
<path transform="matrix(.001,0,0,.001,0,0)" d="M124 83H285V639L110 604V694L284 729H383V83H544V0H124V83Z"/>
</g>
<g id="font_8_50">
<path transform="matrix(.001,0,0,.001,0,0)" d="M192 83H536V0H73V83C110 121 161 173 226 239 290 304 331 346 348 365 380 400 402 430 414 455 426 479 433 504 433 528 433 566 419 598 392 622 365 646 330 659 286 659 255 659 222 653 188 643 154 632 117 616 78 594V694C118 710 155 722 189 730 223 738 255 742 284 742 359 742 419 723 464 685 509 647 532 597 532 534 532 504 526 475 515 449 504 422 484 390 454 354 446 344 420 317 376 272 332 227 271 164 192 83Z"/>
</g>
<g id="font_8_51">
<path transform="matrix(.001,0,0,.001,0,0)" d="M406 393C453 383 490 362 516 330 542 298 556 258 556 212 556 140 531 84 482 45 432 6 362-13 271-13 240-13 208-10 176-4 144 1 110 10 76 22V117C103 101 133 89 166 81 198 73 232 69 268 69 330 69 377 81 409 105 441 129 458 165 458 212 458 254 443 288 413 312 383 336 341 349 287 349H202V430H291C339 430 376 439 402 459 428 478 441 506 441 543 441 580 427 609 401 629 374 649 336 659 287 659 260 659 231 656 200 650 169 644 135 635 98 623V711C135 721 170 729 203 734 235 739 266 742 296 742 370 742 429 725 473 691 517 657 539 611 539 553 539 513 527 479 504 451 481 423 448 403 406 393Z"/>
</g>
<g id="font_8_52">
<path transform="matrix(.001,0,0,.001,0,0)" d="M378 643 129 254H378V643ZM352 729H476V254H580V172H476V0H378V172H49V267L352 729Z"/>
</g>
<g id="font_8_53">
<path transform="matrix(.001,0,0,.001,0,0)" d="M108 729H495V646H198V467C212 472 227 476 241 478 255 480 270 482 284 482 365 482 429 459 477 415 525 370 549 310 549 234 549 155 524 94 475 51 426 8 357-13 269-13 238-13 207-10 175-6 143-1 111 6 77 17V116C106 100 136 88 168 80 199 72 232 69 267 69 323 69 368 83 401 113 433 143 450 183 450 234 450 284 433 324 401 354 368 384 323 399 267 399 241 399 214 396 188 390 162 384 135 375 108 363V729Z"/>
</g>
<g id="font_8_54">
<path transform="matrix(.001,0,0,.001,0,0)" d="M330 404C286 404 251 388 225 358 199 328 186 286 186 234 186 181 199 139 225 109 251 79 286 64 330 64 374 64 409 79 435 109 461 139 474 181 474 234 474 286 461 328 435 358 409 388 374 404 330 404ZM526 713V623C501 635 476 644 451 650 425 656 400 659 376 659 310 659 260 637 226 593 192 549 172 482 168 394 187 422 211 444 240 459 269 474 301 482 336 482 409 482 467 459 509 415 551 371 573 310 573 234 573 159 550 99 506 54 462 9 403-13 330-13 246-13 181 19 137 83 92 147 70 241 70 364 70 479 97 571 152 639 206 707 280 742 372 742 396 742 421 739 447 735 472 730 498 723 526 713Z"/>
</g>
<g id="font_8_84">
<path transform="matrix(.001,0,0,.001,0,0)" d="M-2 729H614V646H355V0H256V646H-2V729Z"/>
</g>
<g id="font_8_114">
<path transform="matrix(.001,0,0,.001,0,0)" d="M411 463C401 469 390 473 378 476 366 478 353 480 339 480 288 480 249 463 222 430 194 397 181 350 181 288V0H91V547H181V462C199 495 224 520 254 536 284 552 321 560 365 560 371 560 378 559 386 559 393 558 401 557 411 555V463Z"/>
</g>
<g id="font_8_97">
<path transform="matrix(.001,0,0,.001,0,0)" d="M343 275C270 275 220 266 192 250 164 233 150 205 150 165 150 133 160 107 181 89 202 70 231 61 267 61 317 61 357 78 387 114 417 149 432 196 432 255V275H343ZM522 312V0H432V83C411 49 385 25 355 10 325-5 287-13 243-13 187-13 142 2 109 33 76 64 60 106 60 159 60 220 80 266 122 298 163 329 224 345 306 345H432V354C432 395 418 427 391 450 364 472 326 484 277 484 245 484 215 480 185 472 155 464 127 453 100 439V522C132 534 164 544 195 550 226 556 256 560 286 560 365 560 424 539 463 498 502 457 522 395 522 312Z"/>
</g>
<g id="font_8_105">
<path transform="matrix(.001,0,0,.001,0,0)" d="M94 547H184V0H94V547ZM94 760H184V646H94V760Z"/>
</g>
<g id="font_8_110">
<path transform="matrix(.001,0,0,.001,0,0)" d="M549 330V0H459V327C459 379 448 417 428 443 408 469 378 482 338 482 289 482 251 466 223 435 195 404 181 362 181 309V0H91V547H181V462C202 494 227 519 257 535 286 551 320 560 358 560 420 560 468 540 500 501 532 462 549 405 549 330Z"/>
</g>
<g id="font_8_103">
<path transform="matrix(.001,0,0,.001,0,0)" d="M454 280C454 344 440 395 414 431 387 467 349 485 301 485 253 485 215 467 188 431 161 395 148 344 148 280 148 215 161 165 188 129 215 93 253 75 301 75 349 75 387 93 414 129 440 165 454 215 454 280ZM544 68C544-24 523-93 482-139 440-184 377-207 292-207 260-207 231-204 203-200 175-195 147-188 121-178V-91C147-105 173-115 199-122 225-129 251-133 278-133 336-133 380-117 410-87 439-56 454-10 454 52V96C435 64 411 40 382 24 353 8 319 0 279 0 211 0 157 25 116 76 75 127 55 195 55 280 55 364 75 432 116 483 157 534 211 560 279 560 319 560 353 552 382 536 411 520 435 496 454 464V547H544V68Z"/>
</g>
<g id="font_8_32">
</g>
<g id="font_8_83">
<path transform="matrix(.001,0,0,.001,0,0)" d="M535 705V609C497 627 462 640 429 649 395 657 363 662 333 662 279 662 237 651 208 631 179 610 165 580 165 542 165 510 174 485 194 469 213 452 250 439 304 429L364 417C437 403 491 378 526 343 561 307 579 260 579 201 579 130 555 77 508 41 460 5 391-13 300-13 265-13 228-9 189-2 150 5 110 16 69 32V134C109 111 148 94 186 83 224 71 262 66 300 66 356 66 399 77 430 99 460 121 476 152 476 194 476 230 465 258 443 278 421 298 385 313 335 323L275 335C201 349 148 372 115 404 82 435 66 478 66 534 66 598 88 649 134 686 179 723 242 742 322 742 356 742 390 739 426 733 461 727 497 717 535 705Z"/>
</g>
<g id="font_8_116">
<path transform="matrix(.001,0,0,.001,0,0)" d="M183 702V547H368V477H183V180C183 135 189 106 201 94 213 81 238 75 276 75H368V0H276C206 0 158 13 132 39 106 65 93 112 93 180V477H27V547H93V702H183Z"/>
</g>
<g id="font_8_101">
<path transform="matrix(.001,0,0,.001,0,0)" d="M562 296V252H149C153 190 171 142 205 110 238 78 284 62 344 62 378 62 412 66 444 74 476 82 509 95 541 113V28C509 14 476 3 442-3 408-9 373-13 339-13 251-13 182 12 131 62 80 112 55 181 55 268 55 357 79 428 127 481 175 533 241 560 323 560 397 560 455 536 498 489 540 441 562 377 562 296ZM472 322C471 371 457 410 431 440 404 469 368 484 324 484 274 484 234 469 204 441 174 413 156 373 152 322H472Z"/>
</g>
<g id="font_8_112">
<path transform="matrix(.001,0,0,.001,0,0)" d="M181 82V-207H91V547H181V464C199 496 223 520 252 536 281 552 316 560 356 560 422 560 476 533 518 481 559 428 580 359 580 273 580 187 559 117 518 65 476 13 422-13 356-13 316-13 281-5 252 10 223 25 199 49 181 82ZM487 273C487 339 473 390 446 428 418 466 381 485 334 485 286 485 249 466 222 428 194 390 181 339 181 273 181 207 194 155 222 117 249 79 286 61 334 61 381 61 418 79 446 117 473 155 487 207 487 273Z"/>
</g>
<g id="font_8_115">
<path transform="matrix(.001,0,0,.001,0,0)" d="M443 531V446C417 458 391 468 364 475 336 481 308 485 279 485 234 485 200 478 178 464 156 450 145 430 145 403 145 382 153 366 169 354 185 342 217 330 265 320L296 313C360 299 405 279 432 255 458 230 472 195 472 151 472 100 452 60 412 31 372 1 316-13 246-13 216-13 186-10 154-5 122 0 89 8 54 20V113C87 95 120 82 152 74 184 65 216 61 248 61 290 61 323 68 346 82 368 96 380 117 380 144 380 168 371 187 355 200 339 213 303 226 247 238L216 245C160 257 119 275 95 299 70 323 58 356 58 399 58 450 76 490 112 518 148 546 200 560 268 560 301 560 332 557 362 552 391 547 418 540 443 531Z"/>
</g>
<g id="font_8_55">
<path transform="matrix(.001,0,0,.001,0,0)" d="M82 729H551V687L286 0H183L432 646H82V729Z"/>
</g>
<g id="font_8_69">
<path transform="matrix(.001,0,0,.001,0,0)" d="M98 729H559V646H197V430H544V347H197V83H568V0H98V729Z"/>
</g>
<g id="font_8_108">
<path transform="matrix(.001,0,0,.001,0,0)" d="M94 760H184V0H94V760Z"/>
</g>
<g id="font_8_111">
<path transform="matrix(.001,0,0,.001,0,0)" d="M306 484C258 484 220 465 192 427 164 389 150 338 150 273 150 207 163 156 191 118 219 80 257 62 306 62 354 62 392 80 420 118 448 156 462 207 462 273 462 337 448 389 420 427 392 465 354 484 306 484ZM306 560C384 560 445 534 490 484 534 433 557 363 557 273 557 183 534 113 490 63 445 12 384-13 306-13 227-13 165 12 121 63 77 113 55 183 55 273 55 363 77 433 121 484 165 534 227 560 306 560Z"/>
</g>
<g id="font_8_82">
<path transform="matrix(.001,0,0,.001,0,0)" d="M444 342C465 334 486 319 506 296 526 272 546 240 566 199L666 0H560L467 187C443 235 419 268 397 284 374 300 343 308 304 308H197V0H98V729H321C404 729 466 711 507 677 548 642 569 589 569 519 569 473 558 434 537 404 515 374 484 353 444 342ZM197 648V389H321C368 389 404 400 428 422 452 444 465 476 465 519 465 561 452 593 428 615 404 637 368 648 321 648H197Z"/>
</g>
<clipPath id="clip_9">
<path transform="matrix(.08064,0,0,-.08064,-.0000076293949,163.9903)" d="M263.938 150.375H2423.938V1950.375H263.938Z"/>
</clipPath>
<clipPath id="clip_10">
<path transform="matrix(.08064,0,0,-.08064,-.0000076293949,163.9903)" d="M263.938 150.375H2423.938V1950.375H263.938Z"/>
</clipPath>
<clipPath id="clip_11">
<path transform="matrix(.08064,0,0,-.08064,-.0000076293949,163.9903)" d="M263.938 150.375H2423.938V1950.375H263.938Z"/>
</clipPath>
<clipPath id="clip_12">
<path transform="matrix(.08064,0,0,-.08064,-.0000076293949,163.9903)" d="M263.938 150.375H2423.938V1950.375H263.938Z"/>
</clipPath>
<clipPath id="clip_13">
<path transform="matrix(.08064,0,0,-.08064,-.0000076293949,163.9903)" d="M263.938 150.375H2423.938V1950.375H263.938Z"/>
</clipPath>
<clipPath id="clip_14">
<path transform="matrix(.08064,0,0,-.08064,-.0000076293949,163.9903)" d="M263.938 150.375H2423.938V1950.375H263.938Z"/>
</clipPath>
<g id="font_8_56">
<path transform="matrix(.001,0,0,.001,0,0)" d="M318 346C271 346 234 333 207 308 180 283 167 249 167 205 167 161 180 126 207 101 234 76 271 64 318 64 364 64 401 76 428 102 455 127 469 161 469 205 469 249 455 283 429 308 402 333 365 346 318 346ZM219 388C177 398 144 418 120 447 96 476 85 511 85 553 85 611 105 657 147 691 188 725 245 742 318 742 390 742 447 725 489 691 530 657 551 611 551 553 551 511 539 476 515 447 491 418 459 398 417 388 464 377 501 355 528 323 554 291 568 251 568 205 568 134 546 80 503 43 459 5 397-13 317-13 237-13 175 5 132 43 89 80 68 134 68 205 68 251 81 291 108 323 134 355 171 377 219 388ZM183 544C183 506 194 476 218 455 242 434 275 424 318 424 360 424 393 434 417 455 441 476 453 506 453 544 453 582 441 611 417 632 393 653 360 664 318 664 275 664 242 653 218 632 194 611 183 582 183 544Z"/>
</g>
<g id="font_8_120">
<path transform="matrix(.001,0,0,.001,0,0)" d="M549 547 351 281 559 0H453L294 215 135 0H29L241 286 47 547H153L298 352 443 547H549Z"/>
</g>
<g id="font_8_79">
<path transform="matrix(.001,0,0,.001,0,0)" d="M394 662C322 662 265 635 223 582 181 528 160 456 160 364 160 272 181 199 223 146 265 92 322 66 394 66 465 66 522 92 564 146 606 199 627 272 627 364 627 456 606 528 564 582 522 635 465 662 394 662ZM394 742C496 742 577 707 639 639 700 571 731 479 731 364 731 248 700 157 639 89 577 21 496-13 394-13 291-13 209 21 148 89 86 157 56 248 56 364 56 479 86 571 148 639 209 707 291 742 394 742Z"/>
</g>
<g id="font_8_104">
<path transform="matrix(.001,0,0,.001,0,0)" d="M549 330V0H459V327C459 379 448 417 428 443 408 469 378 482 338 482 289 482 251 466 223 435 195 404 181 362 181 309V0H91V760H181V462C202 494 227 519 257 535 286 551 320 560 358 560 420 560 468 540 500 501 532 462 549 405 549 330Z"/>
</g>
<g id="font_15_110">
<path transform="matrix(.001,0,0,.001,0,0)" d="M557 330 493 0H403L467 327C469 342 471 355 473 367 475 379 476 388 476 395 476 422 467 443 450 459 432 474 408 482 378 482 330 482 288 466 253 434 218 402 195 358 185 303L125 0H35L141 547H231L213 461C237 492 267 516 303 534 338 551 375 560 414 560 462 560 499 547 526 521 552 495 566 458 566 411 566 399 565 387 564 374 562 360 560 346 557 330Z"/>
</g>
<g id="font_8_61">
<path transform="matrix(.001,0,0,.001,0,0)" d="M106 454H732V372H106V454ZM106 255H732V172H106V255Z"/>
</g>
<clipPath id="clip_16">
<path transform="matrix(.00580608,0,0,-.00580608,42.76641,16.303425)" d="M-1016-351H1660V1068H-1016Z"/>
</clipPath>
<clipPath id="clip_17">
<path transform="matrix(.00580608,0,0,-.00580608,42.76641,24.826069)" d="M-1016-351H1660V1068H-1016Z"/>
</clipPath>
<g id="font_8_45">
<path transform="matrix(.001,0,0,.001,0,0)" d="M49 314H312V234H49V314Z"/>
</g>
<clipPath id="clip_18">
<path transform="matrix(.00580608,0,0,-.00580608,48.546976,33.349966)" d="M-1016-351H1660V1068H-1016Z"/>
</clipPath>
<clipPath id="clip_19">
<path transform="matrix(.00580608,0,0,-.00580608,108.83344,16.303425)" d="M-1016-351H1660V1068H-1016Z"/>
</clipPath>
<clipPath id="clip_20">
<path transform="matrix(.00580608,0,0,-.00580608,108.83344,24.82732)" d="M-1016-351H1660V1068H-1016Z"/>
</clipPath>
<clipPath id="clip_21">
<path transform="matrix(.00580608,0,0,-.00580608,108.83344,33.35123)" d="M-1016-351H1660V1068H-1016Z"/>
</clipPath>
</defs>
<g clip-path="url(#clip_0)">
<g clip-path="url(#clip_1)">
<path transform="matrix(.08064,0,0,-.08064,0,163.9903)" d="M0 0H2490.602V2033.609H0Z" fill="#ffffff"/>
<path transform="matrix(.08064,0,0,-.08064,0,163.9903)" d="M263.938 150.375H2423.938V1950.375H263.938Z" fill="#ffffff"/>
<g clip-path="url(#clip_2)">
<path transform="matrix(.08064,0,0,-.08064,0,163.9903)" d="M263.938 453.671V232.193L371.938 554.03 479.938 979.831 587.938 1095.428 695.938 1235.974 803.938 1305.089 911.938 1341.24 1019.938 1370.237 1127.938 1314.424 1235.938 1387.314 1343.938 1392.788 1451.938 1334.111 1559.938 1382.108 1667.938 1446.625 1775.938 1425.882 1883.938 1411.318 1991.938 1417.631 2099.938 1603.914 2207.938 1372.743 2315.938 1388.299 2423.938 1455.085V1700.868L2315.938 1570.521 2207.938 1538.699 2099.938 1868.557 1991.938 1646.909 1883.938 1628.231 1775.938 1660.198 1667.938 1677.081 1559.938 1561.753 1451.938 1483.264 1343.938 1586.302 1235.938 1573.692 1127.938 1454.483 1019.938 1545.969 911.938 1499.924 803.938 1436.05 695.938 1344.927 587.938 1178.614 479.938 1059.814 371.938 722.333 263.938 453.671Z" fill="#1f77b4" fill-opacity=".1"/>
</g>
<g clip-path="url(#clip_3)">
<path transform="matrix(.08064,0,0,-.08064,0,163.9903)" d="M263.938 232.193V232.193H371.938L479.938 667.986 587.938 889.376 695.938 1130.152 803.938 1129.785 911.938 1153.684 1019.938 1226.998 1127.938 1173.678 1235.938 1200.83 1343.938 1232.633 1451.938 1255.901 1559.938 1320.261 1667.938 1261.884 1775.938 1299.011 1883.938 1254.582 1991.938 1229.135 2099.938 1279.396 2207.938 1301.713 2315.938 1295.216 2423.938 1331.413V1473.762L2315.938 1421.412 2207.938 1431.087 2099.938 1400.249 1991.938 1335.418 1883.938 1365.944 1775.938 1425.014 1667.938 1377.845 1559.938 1455.238 1451.938 1363.646 1343.938 1336.491 1235.938 1299.823 1127.938 1266.64 1019.938 1332.187 911.938 1243.787 803.938 1217.223 695.938 1216.753 587.938 975.549 479.938 799.841 371.938 596.627 263.938 232.193Z" fill="#ff7f0e" fill-opacity=".1"/>
</g>
<g clip-path="url(#clip_4)">
<path transform="matrix(.08064,0,0,-.08064,0,163.9903)" d="M263.938 453.671V232.193L371.938 679.924 479.938 489.368 587.938 527.32 695.938 447.914 803.938 597.044 911.938 666.124 1019.938 739.849 1127.938 822.442 1235.938 856.816 1343.938 865.085 1451.938 943.163 1559.938 991.64 1667.938 973.857 1775.938 984.288 1883.938 984.281 1991.938 1000.429 2099.938 1019.229 2207.938 1052.509 2315.938 1067.079 2423.938 1058.298V1139.028L2315.938 1148.246 2207.938 1132.923 2099.938 1098.919 1991.938 1080.021 1883.938 1064.146 1775.938 1064.139 1667.938 1054.031 1559.938 1071.371 1451.938 1024.789 1343.938 953.843 1235.938 947.175 1127.938 917.915 1019.938 852.333 911.938 800.721 803.938 746.463 695.938 661.244 587.938 713.356 479.938 695.44 371.938 810.705 263.938 453.671Z" fill="#2ca02c" fill-opacity=".1"/>
</g>
<g clip-path="url(#clip_5)">
<path transform="matrix(.08064,0,0,-.08064,0,163.9903)" d="M263.938 232.193V232.193H371.938 479.938 587.938 695.938 803.938L911.938 367.962 1019.938 616.069 1127.938 509.535 1235.938 642.727 1343.938 479.98 1451.938 771.049 1559.938 746.456 1667.938 906.949 1775.938 742.314 1883.938 894.835 1991.938 855.153 2099.938 985.778 2207.938 981.329 2315.938 947.894 2423.938 966.275V1046.824L2315.938 1029.205 2207.938 1061.246 2099.938 1065.572 1991.938 945.161 1883.938 980.308 1775.938 850.913 1667.938 991.467 1559.938 857.361 1451.938 876.297 1343.938 687.55 1235.938 781.745 1127.938 709.362 1019.938 767.219 911.938 637.308 803.938 573.544 695.938 558.537 587.938 232.193 479.938 522.646 371.938 453.671 263.938 232.193Z" fill="#d62728" fill-opacity=".1"/>
</g>
<g clip-path="url(#clip_6)">
<path transform="matrix(.08064,0,0,-.08064,0,163.9903)" d="M263.938 522.646V232.193L371.938 655.975 479.938 632.584 587.938 645.233 695.938 472.381 803.938 449.101 911.938 478.609 1019.938 642.962 1127.938 678.311 1235.938 782.198 1343.938 838.102 1451.938 905.369 1559.938 938.435 1667.938 979.825 1775.938 998.962 1883.938 1003.317 1991.938 1006.233 2099.938 1071.494 2207.938 1049.561 2315.938 1065.592 2423.938 1131.715V1218.695L2315.938 1146.72 2207.938 1129.956 2099.938 1152.914 1991.938 1085.82 1883.938 1082.935 1775.938 1078.586 1667.938 1059.819 1559.938 1020.307 1451.938 989.786 1343.938 931.028 1235.938 885.285 1127.938 806.041 1019.938 781.641 911.938 687.905 803.938 672.967 695.938 689.466 587.938 786.785 479.938 779.887 371.938 793.895 263.938 522.646Z" fill="#9467bd" fill-opacity=".1"/>
</g>
<g clip-path="url(#clip_7)">
<path transform="matrix(.08064,0,0,-.08064,0,163.9903)" d="M263.938 232.193V232.193H371.938 479.938L587.938 331.023 695.938 232.193 803.938 283.6 911.938 442.188 1019.938 252.078 1127.938 417.241 1235.938 601.949 1343.938 652.302 1451.938 684.749 1559.938 719.269 1667.938 707.548 1775.938 831.979 1883.938 836.176 1991.938 1000.427 2099.938 882.073 2207.938 994.529 2315.938 988.713 2423.938 1029.306V1109.185L2315.938 1068.472 2207.938 1074.3 2099.938 969.022 1991.938 1080.023 1883.938 929.012 1775.938 925.152 1667.938 827.747 1559.938 836.096 1451.938 813.696 1343.938 789.647 1235.938 759.076 1127.938 667.899 1019.938 603.68 911.938 674.515 803.938 580.96 695.938 558.537 587.938 642.579 479.938 607.865 371.938 232.193H263.938Z" fill="#8c564b" fill-opacity=".1"/>
</g>
<path transform="matrix(.08064,0,0,-.08064,0,163.9903)" d="M263.938 150.375V146.875"/>
<path transform="matrix(.08064,0,0,-.08064,0,163.9903)" stroke-width=".8" stroke-linecap="butt" stroke-linejoin="round" fill="none" stroke="#000000" d="M263.938 150.375V146.875"/>
<use data-text="0" xlink:href="#font_8_48" transform="matrix(5.8060805,0,0,-5.8060805,17.755291,156.8398)"/>
<use data-text="k" xlink:href="#font_8_107" transform="matrix(5.8060805,0,0,-5.8060805,21.447958,156.8398)"/>
<path transform="matrix(.08064,0,0,-.08064,0,163.9903)" d="M623.938 150.375V146.875"/>
<path transform="matrix(.08064,0,0,-.08064,0,163.9903)" stroke-width=".8" stroke-linecap="butt" stroke-linejoin="round" fill="none" stroke="#000000" d="M623.938 150.375V146.875"/>
<use data-text="1" xlink:href="#font_8_49" transform="matrix(5.8060805,0,0,-5.8060805,44.93853,156.8398)"/>
<use data-text="0" xlink:href="#font_8_48" transform="matrix(5.8060805,0,0,-5.8060805,48.6312,156.8398)"/>
<use data-text="k" xlink:href="#font_8_107" transform="matrix(5.8060805,0,0,-5.8060805,52.323865,156.8398)"/>
<path transform="matrix(.08064,0,0,-.08064,0,163.9903)" d="M983.938 150.375V146.875"/>
<path transform="matrix(.08064,0,0,-.08064,0,163.9903)" stroke-width=".8" stroke-linecap="butt" stroke-linejoin="round" fill="none" stroke="#000000" d="M983.938 150.375V146.875"/>
<use data-text="2" xlink:href="#font_8_50" transform="matrix(5.8060805,0,0,-5.8060805,73.96893,156.8398)"/>
<use data-text="0" xlink:href="#font_8_48" transform="matrix(5.8060805,0,0,-5.8060805,77.6616,156.8398)"/>
<use data-text="k" xlink:href="#font_8_107" transform="matrix(5.8060805,0,0,-5.8060805,81.35427,156.8398)"/>
<path transform="matrix(.08064,0,0,-.08064,0,163.9903)" d="M1343.938 150.375V146.875"/>
<path transform="matrix(.08064,0,0,-.08064,0,163.9903)" stroke-width=".8" stroke-linecap="butt" stroke-linejoin="round" fill="none" stroke="#000000" d="M1343.938 150.375V146.875"/>
<use data-text="3" xlink:href="#font_8_51" transform="matrix(5.8060805,0,0,-5.8060805,102.99934,156.8398)"/>
<use data-text="0" xlink:href="#font_8_48" transform="matrix(5.8060805,0,0,-5.8060805,106.692,156.8398)"/>
<use data-text="k" xlink:href="#font_8_107" transform="matrix(5.8060805,0,0,-5.8060805,110.384677,156.8398)"/>
<path transform="matrix(.08064,0,0,-.08064,0,163.9903)" d="M1703.938 150.375V146.875"/>
<path transform="matrix(.08064,0,0,-.08064,0,163.9903)" stroke-width=".8" stroke-linecap="butt" stroke-linejoin="round" fill="none" stroke="#000000" d="M1703.938 150.375V146.875"/>
<use data-text="4" xlink:href="#font_8_52" transform="matrix(5.8060805,0,0,-5.8060805,132.02974,156.8398)"/>
<use data-text="0" xlink:href="#font_8_48" transform="matrix(5.8060805,0,0,-5.8060805,135.72241,156.8398)"/>
<use data-text="k" xlink:href="#font_8_107" transform="matrix(5.8060805,0,0,-5.8060805,139.41507,156.8398)"/>
<path transform="matrix(.08064,0,0,-.08064,0,163.9903)" d="M2063.938 150.375V146.875"/>
<path transform="matrix(.08064,0,0,-.08064,0,163.9903)" stroke-width=".8" stroke-linecap="butt" stroke-linejoin="round" fill="none" stroke="#000000" d="M2063.938 150.375V146.875"/>
<use data-text="5" xlink:href="#font_8_53" transform="matrix(5.8060805,0,0,-5.8060805,161.06014,156.8398)"/>
<use data-text="0" xlink:href="#font_8_48" transform="matrix(5.8060805,0,0,-5.8060805,164.7528,156.8398)"/>
<use data-text="k" xlink:href="#font_8_107" transform="matrix(5.8060805,0,0,-5.8060805,168.44547,156.8398)"/>
<path transform="matrix(.08064,0,0,-.08064,0,163.9903)" d="M2423.938 150.375V146.875"/>
<path transform="matrix(.08064,0,0,-.08064,0,163.9903)" stroke-width=".8" stroke-linecap="butt" stroke-linejoin="round" fill="none" stroke="#000000" d="M2423.938 150.375V146.875"/>
<use data-text="6" xlink:href="#font_8_54" transform="matrix(5.8060805,0,0,-5.8060805,190.09053,156.8398)"/>
<use data-text="0" xlink:href="#font_8_48" transform="matrix(5.8060805,0,0,-5.8060805,193.7832,156.8398)"/>
<use data-text="k" xlink:href="#font_8_107" transform="matrix(5.8060805,0,0,-5.8060805,197.47586,156.8398)"/>
<use data-text="T" xlink:href="#font_8_84" transform="matrix(5.8060805,0,0,-5.8060805,87.87555,162.78195)"/>
<use data-text="r" xlink:href="#font_8_114" transform="matrix(5.8060805,0,0,-5.8060805,90.57015,162.78195)"/>
<use data-text="a" xlink:href="#font_8_97" transform="matrix(5.8060805,0,0,-5.8060805,92.95645,162.78195)"/>
<use data-text="i" xlink:href="#font_8_105" transform="matrix(5.8060805,0,0,-5.8060805,96.51558,162.78195)"/>
<use data-text="n" xlink:href="#font_8_110" transform="matrix(5.8060805,0,0,-5.8060805,98.12967,162.78195)"/>
<use data-text="i" xlink:href="#font_8_105" transform="matrix(5.8060805,0,0,-5.8060805,101.81072,162.78195)"/>
<use data-text="n" xlink:href="#font_8_110" transform="matrix(5.8060805,0,0,-5.8060805,103.42481,162.78195)"/>
<use data-text="g" xlink:href="#font_8_103" transform="matrix(5.8060805,0,0,-5.8060805,107.105869,162.78195)"/>
<use data-text=" " xlink:href="#font_8_32" transform="matrix(5.8060805,0,0,-5.8060805,110.79273,162.78195)"/>
<use data-text="S" xlink:href="#font_8_83" transform="matrix(5.8060805,0,0,-5.8060805,112.63906,162.78195)"/>
<use data-text="t" xlink:href="#font_8_116" transform="matrix(5.8060805,0,0,-5.8060805,116.32593,162.78195)"/>
<use data-text="e" xlink:href="#font_8_101" transform="matrix(5.8060805,0,0,-5.8060805,118.601909,162.78195)"/>
<use data-text="p" xlink:href="#font_8_112" transform="matrix(5.8060805,0,0,-5.8060805,122.172649,162.78195)"/>
<use data-text="s" xlink:href="#font_8_115" transform="matrix(5.8060805,0,0,-5.8060805,125.85951,162.78195)"/>
<path transform="matrix(.08064,0,0,-.08064,-.0000076293949,163.9903)" d="M263.938 232.193H260.438"/>
<path transform="matrix(.08064,0,0,-.08064,-.0000076293949,163.9903)" stroke-width=".8" stroke-linecap="butt" stroke-linejoin="round" fill="none" stroke="#000000" d="M263.938 232.193H260.438"/>
<use data-text="0" xlink:href="#font_8_48" transform="matrix(5.8060805,0,0,-5.8060805,17.025113,147.47187)"/>
<path transform="matrix(.08064,0,0,-.08064,-.0000076293949,163.9903)" d="M263.938 436.739H260.438"/>
<path transform="matrix(.08064,0,0,-.08064,-.0000076293949,163.9903)" stroke-width=".8" stroke-linecap="butt" stroke-linejoin="round" fill="none" stroke="#000000" d="M263.938 436.739H260.438"/>
<use data-text="2" xlink:href="#font_8_50" transform="matrix(5.8060805,0,0,-5.8060805,9.636473,130.97733)"/>
<use data-text="5" xlink:href="#font_8_53" transform="matrix(5.8060805,0,0,-5.8060805,13.32914,130.97733)"/>
<use data-text="0" xlink:href="#font_8_48" transform="matrix(5.8060805,0,0,-5.8060805,17.021807,130.97733)"/>
<path transform="matrix(.08064,0,0,-.08064,-.0000076293949,163.9903)" d="M263.938 641.284H260.438"/>
<path transform="matrix(.08064,0,0,-.08064,-.0000076293949,163.9903)" stroke-width=".8" stroke-linecap="butt" stroke-linejoin="round" fill="none" stroke="#000000" d="M263.938 641.284H260.438"/>
<use data-text="5" xlink:href="#font_8_53" transform="matrix(5.8060805,0,0,-5.8060805,9.636473,114.48277)"/>
<use data-text="0" xlink:href="#font_8_48" transform="matrix(5.8060805,0,0,-5.8060805,13.32914,114.48277)"/>
<use data-text="0" xlink:href="#font_8_48" transform="matrix(5.8060805,0,0,-5.8060805,17.021807,114.48277)"/>
<path transform="matrix(.08064,0,0,-.08064,-.0000076293949,163.9903)" d="M263.938 845.83H260.438"/>
<path transform="matrix(.08064,0,0,-.08064,-.0000076293949,163.9903)" stroke-width=".8" stroke-linecap="butt" stroke-linejoin="round" fill="none" stroke="#000000" d="M263.938 845.83H260.438"/>
<use data-text="7" xlink:href="#font_8_55" transform="matrix(5.8060805,0,0,-5.8060805,9.636473,97.98823)"/>
<use data-text="5" xlink:href="#font_8_53" transform="matrix(5.8060805,0,0,-5.8060805,13.32914,97.98823)"/>
<use data-text="0" xlink:href="#font_8_48" transform="matrix(5.8060805,0,0,-5.8060805,17.021807,97.98823)"/>
<path transform="matrix(.08064,0,0,-.08064,-.0000076293949,163.9903)" d="M263.938 1050.375H260.438"/>
<path transform="matrix(.08064,0,0,-.08064,-.0000076293949,163.9903)" stroke-width=".8" stroke-linecap="butt" stroke-linejoin="round" fill="none" stroke="#000000" d="M263.938 1050.375H260.438"/>
<use data-text="1" xlink:href="#font_8_49" transform="matrix(5.8060805,0,0,-5.8060805,5.9421527,81.49368)"/>
<use data-text="0" xlink:href="#font_8_48" transform="matrix(5.8060805,0,0,-5.8060805,9.63482,81.49368)"/>
<use data-text="0" xlink:href="#font_8_48" transform="matrix(5.8060805,0,0,-5.8060805,13.327487,81.49368)"/>
<use data-text="0" xlink:href="#font_8_48" transform="matrix(5.8060805,0,0,-5.8060805,17.020155,81.49368)"/>
<path transform="matrix(.08064,0,0,-.08064,-.0000076293949,163.9903)" d="M263.938 1254.92H260.438"/>
<path transform="matrix(.08064,0,0,-.08064,-.0000076293949,163.9903)" stroke-width=".8" stroke-linecap="butt" stroke-linejoin="round" fill="none" stroke="#000000" d="M263.938 1254.92H260.438"/>
<use data-text="1" xlink:href="#font_8_49" transform="matrix(5.8060805,0,0,-5.8060805,5.9421527,64.99914)"/>
<use data-text="2" xlink:href="#font_8_50" transform="matrix(5.8060805,0,0,-5.8060805,9.63482,64.99914)"/>
<use data-text="5" xlink:href="#font_8_53" transform="matrix(5.8060805,0,0,-5.8060805,13.327487,64.99914)"/>
<use data-text="0" xlink:href="#font_8_48" transform="matrix(5.8060805,0,0,-5.8060805,17.020155,64.99914)"/>
<path transform="matrix(.08064,0,0,-.08064,-.0000076293949,163.9903)" d="M263.938 1459.466H260.438"/>
<path transform="matrix(.08064,0,0,-.08064,-.0000076293949,163.9903)" stroke-width=".8" stroke-linecap="butt" stroke-linejoin="round" fill="none" stroke="#000000" d="M263.938 1459.466H260.438"/>
<use data-text="1" xlink:href="#font_8_49" transform="matrix(5.8060805,0,0,-5.8060805,5.9421527,48.504587)"/>
<use data-text="5" xlink:href="#font_8_53" transform="matrix(5.8060805,0,0,-5.8060805,9.63482,48.504587)"/>
<use data-text="0" xlink:href="#font_8_48" transform="matrix(5.8060805,0,0,-5.8060805,13.327487,48.504587)"/>
<use data-text="0" xlink:href="#font_8_48" transform="matrix(5.8060805,0,0,-5.8060805,17.020155,48.504587)"/>
<path transform="matrix(.08064,0,0,-.08064,-.0000076293949,163.9903)" d="M263.938 1664.011H260.438"/>
<path transform="matrix(.08064,0,0,-.08064,-.0000076293949,163.9903)" stroke-width=".8" stroke-linecap="butt" stroke-linejoin="round" fill="none" stroke="#000000" d="M263.938 1664.011H260.438"/>
<use data-text="1" xlink:href="#font_8_49" transform="matrix(5.8060805,0,0,-5.8060805,5.9421527,32.01004)"/>
<use data-text="7" xlink:href="#font_8_55" transform="matrix(5.8060805,0,0,-5.8060805,9.63482,32.01004)"/>
<use data-text="5" xlink:href="#font_8_53" transform="matrix(5.8060805,0,0,-5.8060805,13.327487,32.01004)"/>
<use data-text="0" xlink:href="#font_8_48" transform="matrix(5.8060805,0,0,-5.8060805,17.020155,32.01004)"/>
<path transform="matrix(.08064,0,0,-.08064,-.0000076293949,163.9903)" d="M263.938 1868.557H260.438"/>
<path transform="matrix(.08064,0,0,-.08064,-.0000076293949,163.9903)" stroke-width=".8" stroke-linecap="butt" stroke-linejoin="round" fill="none" stroke="#000000" d="M263.938 1868.557H260.438"/>
<use data-text="2" xlink:href="#font_8_50" transform="matrix(5.8060805,0,0,-5.8060805,5.9421527,15.515503)"/>
<use data-text="0" xlink:href="#font_8_48" transform="matrix(5.8060805,0,0,-5.8060805,9.63482,15.515503)"/>
<use data-text="0" xlink:href="#font_8_48" transform="matrix(5.8060805,0,0,-5.8060805,13.327487,15.515503)"/>
<use data-text="0" xlink:href="#font_8_48" transform="matrix(5.8060805,0,0,-5.8060805,17.020155,15.515503)"/>
<use data-text="E" xlink:href="#font_8_69" transform="matrix(0,-5.8060805,-5.8060805,-0,4.4112527,93.98658)"/>
<use data-text="l" xlink:href="#font_8_108" transform="matrix(0,-5.8060805,-5.8060805,-0,4.4112527,90.31714)"/>
<use data-text="o" xlink:href="#font_8_111" transform="matrix(0,-5.8060805,-5.8060805,-0,4.4112527,88.70305)"/>
<use data-text=" " xlink:href="#font_8_32" transform="matrix(0,-5.8060805,-5.8060805,-0,4.4112527,85.14973)"/>
<use data-text="R" xlink:href="#font_8_82" transform="matrix(0,-5.8060805,-5.8060805,-0,4.4112527,83.30339)"/>
<use data-text="a" xlink:href="#font_8_97" transform="matrix(0,-5.8060805,-5.8060805,-0,4.4112527,79.39532)"/>
<use data-text="t" xlink:href="#font_8_116" transform="matrix(0,-5.8060805,-5.8060805,-0,4.4112527,75.83619)"/>
<use data-text="i" xlink:href="#font_8_105" transform="matrix(0,-5.8060805,-5.8060805,-0,4.4112527,73.56021)"/>
<use data-text="n" xlink:href="#font_8_110" transform="matrix(0,-5.8060805,-5.8060805,-0,4.4112527,71.94612)"/>
<use data-text="g" xlink:href="#font_8_103" transform="matrix(0,-5.8060805,-5.8060805,-0,4.4112527,68.26506)"/>
<g clip-path="url(#clip_9)">
<path transform="matrix(.08064,0,0,-.08064,-.0000076293949,163.9903)" stroke-width="6" stroke-linecap="square" stroke-linejoin="round" fill="none" stroke="#1f77b4" d="M263.938 298.023 371.938 659.291 479.938 1020.416 587.938 1135.247 695.938 1283.437 803.938 1358.767 911.938 1402.411 1019.938 1435.278 1127.938 1370.75 1235.938 1454.58 1343.938 1461.567 1451.938 1392.752 1559.938 1447.885 1667.938 1521.798 1775.938 1502.08 1883.938 1484.597 1991.938 1493.093 2099.938 1703.492 2207.938 1435.278 2315.938 1454.58 2423.938 1532.699"/>
</g>
<g clip-path="url(#clip_10)">
<path transform="matrix(.08064,0,0,-.08064,-.0000076293949,163.9903)" stroke-width="6" stroke-linecap="square" stroke-linejoin="round" fill="none" stroke="#ff7f0e" d="M263.938 232.193 371.938 497.22 479.938 745.804 587.938 934.987 695.938 1170.804H803.938L911.938 1195.371 1019.938 1273.241 1127.938 1216.163 1235.938 1245.202 1343.938 1278.278 1451.938 1302.571 1559.938 1374.933 1667.938 1311.361 1775.938 1351.204 1883.938 1302.571 1991.938 1275.745 2099.938 1330.229 2207.938 1354.946 2315.938 1347.538 2423.938 1388.121"/>
</g>
<g clip-path="url(#clip_11)">
<path transform="matrix(.08064,0,0,-.08064,-.0000076293949,163.9903)" stroke-width="6" stroke-linecap="square" stroke-linejoin="round" fill="none" stroke="#2ca02c" d="M263.938 298.023 371.938 756.806 479.938 624.209 587.938 646.17 695.938 589.127 803.938 688.092 911.938 745.804 1019.938 803.831 1127.938 874.59 1235.938 905.379 1343.938 912.592 1451.938 985.302 1559.938 1031.872 1667.938 1014.655 1775.938 1024.722H1883.938L1991.938 1040.422 2099.938 1058.905 2207.938 1091.886 2315.938 1106.526 2423.938 1097.712"/>
</g>
<g clip-path="url(#clip_12)">
<path transform="matrix(.08064,0,0,-.08064,-.0000076293949,163.9903)" stroke-width="6" stroke-linecap="square" stroke-linejoin="round" fill="none" stroke="#d62728" d="M263.938 232.193 371.938 298.023 479.938 397.258 587.938 232.193 695.938 455.608 803.938 477.878 911.938 556.308 1019.938 707.998 1127.938 639.183 1235.938 725.817 1343.938 616.153 1451.938 829.985 1559.938 809.33 1667.938 951.323 1775.938 803.831 1883.938 939.96 1991.938 903.55 2099.938 1026.154 2207.938 1021.853 2315.938 989.778 2423.938 1007.411"/>
</g>
<g clip-path="url(#clip_13)">
<path transform="matrix(.08064,0,0,-.08064,-.0000076293949,163.9903)" stroke-width="6" stroke-linecap="square" stroke-linejoin="round" fill="none" stroke="#9467bd" d="M263.938 397.258 371.938 738.077 479.938 721.531 587.938 730 695.938 616.153 803.938 598.67 911.938 616.153 1019.938 725.817 1127.938 753.212 1235.938 839.616 1343.938 888.483 1451.938 949.719 1559.938 980.794 1667.938 1020.416 1775.938 1038.998 1883.938 1043.267 1991.938 1046.111 2099.938 1110.972 2207.938 1088.987 2315.938 1105.05 2423.938 1172.5"/>
</g>
<g clip-path="url(#clip_14)">
<path transform="matrix(.08064,0,0,-.08064,-.0000076293949,163.9903)" stroke-width="6" stroke-linecap="square" stroke-linejoin="round" fill="none" stroke="#8c564b" d="M263.938 232.193H371.938L479.938 514.324 587.938 556.308 695.938 455.608 803.938 497.22 911.938 598.67 1019.938 514.324 1127.938 589.127 1235.938 698.339 1343.938 734.085 1451.938 760.331 1559.938 786.37 1667.938 777.019 1775.938 882.617 1883.938 886.541 1991.938 1040.422 2099.938 928.25 2207.938 1034.725 2315.938 1029.015 2423.938 1068.878"/>
</g>
<path transform="matrix(.08064,0,0,-.08064,-.0000076293949,163.9903)" stroke-width=".8" stroke-linecap="square" stroke-miterlimit="10" stroke-linejoin="miter" fill="none" stroke="#000000" d="M263.938 150.375V1950.375"/>
<path transform="matrix(.08064,0,0,-.08064,-.0000076293949,163.9903)" stroke-width=".8" stroke-linecap="square" stroke-miterlimit="10" stroke-linejoin="miter" fill="none" stroke="#000000" d="M263.938 150.375H2423.938"/>
<use data-text="8" xlink:href="#font_8_56" transform="matrix(6.9672968,0,0,-6.9672968,88.25229,5.269348)"/>
<use data-text="x" xlink:href="#font_8_120" transform="matrix(6.9672968,0,0,-6.9672968,92.68349,5.269348)"/>
<use data-text="8" xlink:href="#font_8_56" transform="matrix(6.9672968,0,0,-6.9672968,96.80813,5.269348)"/>
<use data-text=" " xlink:href="#font_8_32" transform="matrix(6.9672968,0,0,-6.9672968,101.23933,5.269348)"/>
<use data-text="O" xlink:href="#font_8_79" transform="matrix(6.9672968,0,0,-6.9672968,103.45493,5.269348)"/>
<use data-text="t" xlink:href="#font_8_116" transform="matrix(6.9672968,0,0,-6.9672968,108.938198,5.269348)"/>
<use data-text="h" xlink:href="#font_8_104" transform="matrix(6.9672968,0,0,-6.9672968,111.66937,5.269348)"/>
<use data-text="e" xlink:href="#font_8_101" transform="matrix(6.9672968,0,0,-6.9672968,116.08664,5.269348)"/>
<use data-text="l" xlink:href="#font_8_108" transform="matrix(6.9672968,0,0,-6.9672968,120.37152,5.269348)"/>
<use data-text="l" xlink:href="#font_8_108" transform="matrix(6.9672968,0,0,-6.9672968,122.30843,5.269348)"/>
<use data-text="o" xlink:href="#font_8_111" transform="matrix(6.9672968,0,0,-6.9672968,124.245349,5.269348)"/>
<path transform="matrix(.08064,0,0,-.08064,-.0000076293949,163.9903)" stroke-width="6" stroke-linecap="square" stroke-linejoin="round" fill="none" stroke="#1f77b4" d="M328.737 1856.072H400.737 472.737"/>
<use data-text="0" xlink:href="#font_8_48" transform="matrix(4.064256,0,0,-4.064256,46.59366,17.255986)"/>
<use data-text=" " xlink:href="#font_8_32" transform="matrix(5.8060805,0,0,-5.8060805,49.338224,16.303425)"/>
<use data-text="n" xlink:href="#font_15_110" transform="matrix(5.8060805,0,0,-5.8060805,51.183809,16.303425)"/>
<use data-text="=" xlink:href="#font_8_61" transform="matrix(5.8060805,0,0,-5.8060805,55.994798,16.303425)"/>
<use data-text="2" xlink:href="#font_8_50" transform="matrix(5.8060805,0,0,-5.8060805,61.990827,16.303425)"/>
<use data-text="0" xlink:href="#font_8_48" transform="matrix(5.8060805,0,0,-5.8060805,65.68483,16.303425)"/>
<use data-text="0" xlink:href="#font_8_48" transform="matrix(5.8060805,0,0,-5.8060805,69.37884,16.303425)"/>
<g clip-path="url(#clip_16)">
<path transform="matrix(.00580608,0,0,-.00580608,42.76641,16.303425)" d="M409 254 410 367C410 443 381 482 323 483 279 483 244 465 218 429 184 384 161 332 150 273 136 201 137 148 155 114 173 79 202 62 242 62 285 62 325 96 362 166L409 254ZM338 559C440 561 490 509 489 404 489 404 514 451 565 547H645L487 250 486 144C486 128 490 113 499 100 509 84 519 76 530 76H573L559 0H504C473 0 447 13 425 41 415 55 409 76 409 104 387 69 359 37 323 8 305-5 273-11 227-11 151-10 99 14 71 62 43 112 37 183 55 273 73 369 108 440 158 484 213 533 273 558 338 559Z"/>
</g>
<path transform="matrix(.08064,0,0,-.08064,-.0000076293949,163.9903)" stroke-width="6" stroke-linecap="square" stroke-linejoin="round" fill="none" stroke="#ff7f0e" d="M328.737 1750.384H400.737 472.737"/>
<use data-text="0" xlink:href="#font_8_48" transform="matrix(4.064256,0,0,-4.064256,46.460416,25.77863)"/>
<use data-text=" " xlink:href="#font_8_32" transform="matrix(5.8060805,0,0,-5.8060805,49.204984,24.826069)"/>
<use data-text="n" xlink:href="#font_15_110" transform="matrix(5.8060805,0,0,-5.8060805,51.050569,24.826069)"/>
<use data-text="=" xlink:href="#font_8_61" transform="matrix(5.8060805,0,0,-5.8060805,55.861558,24.826069)"/>
<use data-text="2" xlink:href="#font_8_50" transform="matrix(5.8060805,0,0,-5.8060805,61.857583,24.826069)"/>
<use data-text="0" xlink:href="#font_8_48" transform="matrix(5.8060805,0,0,-5.8060805,65.55159,24.826069)"/>
<use data-text="0" xlink:href="#font_8_48" transform="matrix(5.8060805,0,0,-5.8060805,69.24559,24.826069)"/>
<g clip-path="url(#clip_17)">
<path transform="matrix(.00580608,0,0,-.00580608,42.76641,24.826069)" d="M-12-207 134 547H224L158 207C156 199 155 191 154 183 153 175 153 166 153 158 153 128 162 104 181 88 200 72 227 64 263 64 311 64 349 77 379 105 409 132 429 173 440 228L502 547H592L510 126C508 120 507 114 507 110 507 106 507 102 507 98 507 88 509 80 513 76 517 71 523 69 532 69 535 69 539 69 545 71 551 73 559 76 570 80L556 8C542 1 528-3 515-7 502-11 489-13 477-13 455-13 438-6 426 7 414 20 408 39 408 63 390 37 368 17 343 5 317-7 288-13 254-13 223-13 196-6 174 7 152 21 137 39 130 62L77-207H-12Z"/>
</g>
<path transform="matrix(.08064,0,0,-.08064,-.0000076293949,163.9903)" stroke-width="6" stroke-linecap="square" stroke-linejoin="round" fill="none" stroke="#2ca02c" d="M328.737 1644.681H400.737 472.737"/>
<use data-text="g" xlink:href="#font_8_103" transform="matrix(5.8060805,0,0,-5.8060805,42.76641,33.349966)"/>
<use data-text="-" xlink:href="#font_8_45" transform="matrix(5.8060805,0,0,-5.8060805,46.45191,33.349966)"/>
<use data-text="0" xlink:href="#font_8_48" transform="matrix(4.064256,0,0,-4.064256,52.37422,34.302526)"/>
<use data-text=" " xlink:href="#font_8_32" transform="matrix(5.8060805,0,0,-5.8060805,55.11879,33.349966)"/>
<use data-text="n" xlink:href="#font_15_110" transform="matrix(5.8060805,0,0,-5.8060805,56.964376,33.349966)"/>
<use data-text="=" xlink:href="#font_8_61" transform="matrix(5.8060805,0,0,-5.8060805,61.775377,33.349966)"/>
<use data-text="1" xlink:href="#font_8_49" transform="matrix(5.8060805,0,0,-5.8060805,67.7714,33.349966)"/>
<use data-text="6" xlink:href="#font_8_54" transform="matrix(5.8060805,0,0,-5.8060805,71.46541,33.349966)"/>
<g clip-path="url(#clip_18)">
<path transform="matrix(.00580608,0,0,-.00580608,48.546976,33.349966)" d="M409 254 410 367C410 443 381 482 323 483 279 483 244 465 218 429 184 384 161 332 150 273 136 201 137 148 155 114 173 79 202 62 242 62 285 62 325 96 362 166L409 254ZM338 559C440 561 490 509 489 404 489 404 514 451 565 547H645L487 250 486 144C486 128 490 113 499 100 509 84 519 76 530 76H573L559 0H504C473 0 447 13 425 41 415 55 409 76 409 104 387 69 359 37 323 8 305-5 273-11 227-11 151-10 99 14 71 62 43 112 37 183 55 273 73 369 108 440 158 484 213 533 273 558 338 559Z"/>
</g>
<path transform="matrix(.08064,0,0,-.08064,-.0000076293949,163.9903)" stroke-width="6" stroke-linecap="square" stroke-linejoin="round" fill="none" stroke="#d62728" d="M1076.338 1856.072H1148.338 1220.338"/>
<use data-text="g" xlink:href="#font_8_103" transform="matrix(5.8060805,0,0,-5.8060805,103.05288,16.303425)"/>
<use data-text="-" xlink:href="#font_8_45" transform="matrix(5.8060805,0,0,-5.8060805,106.73838,16.303425)"/>
<use data-text="0" xlink:href="#font_8_48" transform="matrix(4.064256,0,0,-4.064256,112.52745,17.255986)"/>
<use data-text=" " xlink:href="#font_8_32" transform="matrix(5.8060805,0,0,-5.8060805,115.27202,16.303425)"/>
<use data-text="n" xlink:href="#font_15_110" transform="matrix(5.8060805,0,0,-5.8060805,117.1176,16.303425)"/>
<use data-text="=" xlink:href="#font_8_61" transform="matrix(5.8060805,0,0,-5.8060805,121.928607,16.303425)"/>
<use data-text="1" xlink:href="#font_8_49" transform="matrix(5.8060805,0,0,-5.8060805,127.92463,16.303425)"/>
<use data-text="6" xlink:href="#font_8_54" transform="matrix(5.8060805,0,0,-5.8060805,131.61864,16.303425)"/>
<g clip-path="url(#clip_19)">
<path transform="matrix(.00580608,0,0,-.00580608,108.83344,16.303425)" d="M-12-207 134 547H224L158 207C156 199 155 191 154 183 153 175 153 166 153 158 153 128 162 104 181 88 200 72 227 64 263 64 311 64 349 77 379 105 409 132 429 173 440 228L502 547H592L510 126C508 120 507 114 507 110 507 106 507 102 507 98 507 88 509 80 513 76 517 71 523 69 532 69 535 69 539 69 545 71 551 73 559 76 570 80L556 8C542 1 528-3 515-7 502-11 489-13 477-13 455-13 438-6 426 7 414 20 408 39 408 63 390 37 368 17 343 5 317-7 288-13 254-13 223-13 196-6 174 7 152 21 137 39 130 62L77-207H-12Z"/>
</g>
<path transform="matrix(.08064,0,0,-.08064,-.0000076293949,163.9903)" stroke-width="6" stroke-linecap="square" stroke-linejoin="round" fill="none" stroke="#9467bd" d="M1076.338 1750.369H1148.338 1220.338"/>
<use data-text="g" xlink:href="#font_8_103" transform="matrix(5.8060805,0,0,-5.8060805,103.05288,24.82732)"/>
<use data-text="-" xlink:href="#font_8_45" transform="matrix(5.8060805,0,0,-5.8060805,106.73838,24.82732)"/>
<use data-text="0" xlink:href="#font_8_48" transform="matrix(4.064256,0,0,-4.064256,112.66069,25.77988)"/>
<use data-text=" " xlink:href="#font_8_32" transform="matrix(5.8060805,0,0,-5.8060805,115.40526,24.82732)"/>
<use data-text="n" xlink:href="#font_15_110" transform="matrix(5.8060805,0,0,-5.8060805,117.25084,24.82732)"/>
<use data-text="=" xlink:href="#font_8_61" transform="matrix(5.8060805,0,0,-5.8060805,122.061847,24.82732)"/>
<use data-text="2" xlink:href="#font_8_50" transform="matrix(5.8060805,0,0,-5.8060805,128.05788,24.82732)"/>
<g clip-path="url(#clip_20)">
<path transform="matrix(.00580608,0,0,-.00580608,108.83344,24.82732)" d="M409 254 410 367C410 443 381 482 323 483 279 483 244 465 218 429 184 384 161 332 150 273 136 201 137 148 155 114 173 79 202 62 242 62 285 62 325 96 362 166L409 254ZM338 559C440 561 490 509 489 404 489 404 514 451 565 547H645L487 250 486 144C486 128 490 113 499 100 509 84 519 76 530 76H573L559 0H504C473 0 447 13 425 41 415 55 409 76 409 104 387 69 359 37 323 8 305-5 273-11 227-11 151-10 99 14 71 62 43 112 37 183 55 273 73 369 108 440 158 484 213 533 273 558 338 559Z"/>
</g>
<path transform="matrix(.08064,0,0,-.08064,-.0000076293949,163.9903)" stroke-width="6" stroke-linecap="square" stroke-linejoin="round" fill="none" stroke="#8c564b" d="M1076.338 1644.666H1148.338 1220.338"/>
<use data-text="g" xlink:href="#font_8_103" transform="matrix(5.8060805,0,0,-5.8060805,103.05288,33.35123)"/>
<use data-text="-" xlink:href="#font_8_45" transform="matrix(5.8060805,0,0,-5.8060805,106.73838,33.35123)"/>
<use data-text="0" xlink:href="#font_8_48" transform="matrix(4.064256,0,0,-4.064256,112.52745,34.30379)"/>
<use data-text=" " xlink:href="#font_8_32" transform="matrix(5.8060805,0,0,-5.8060805,115.27202,33.35123)"/>
<use data-text="n" xlink:href="#font_15_110" transform="matrix(5.8060805,0,0,-5.8060805,117.1176,33.35123)"/>
<use data-text="=" xlink:href="#font_8_61" transform="matrix(5.8060805,0,0,-5.8060805,121.928607,33.35123)"/>
<use data-text="2" xlink:href="#font_8_50" transform="matrix(5.8060805,0,0,-5.8060805,127.92463,33.35123)"/>
<g clip-path="url(#clip_21)">
<path transform="matrix(.00580608,0,0,-.00580608,108.83344,33.35123)" d="M-12-207 134 547H224L158 207C156 199 155 191 154 183 153 175 153 166 153 158 153 128 162 104 181 88 200 72 227 64 263 64 311 64 349 77 379 105 409 132 429 173 440 228L502 547H592L510 126C508 120 507 114 507 110 507 106 507 102 507 98 507 88 509 80 513 76 517 71 523 69 532 69 535 69 539 69 545 71 551 73 559 76 570 80L556 8C542 1 528-3 515-7 502-11 489-13 477-13 455-13 438-6 426 7 414 20 408 39 408 63 390 37 368 17 343 5 317-7 288-13 254-13 223-13 196-6 174 7 152 21 137 39 130 62L77-207H-12Z"/>
</g>
</g>
</g>
</svg>
